<?xml version="1.0" standalone="no"?>
<!DOCTYPE svg PUBLIC "-//W3C//DTD SVG 1.1//EN" "http://www.w3.org/Graphics/SVG/1.1/DTD/svg11.dtd" >
<svg xmlns="http://www.w3.org/2000/svg">
<metadata></metadata>
<defs>
<font id="deibiregular" horiz-adv-x="1024" >
<font-face units-per-em="2048" ascent="1536" descent="-512" />
<missing-glyph horiz-adv-x="507" />
<glyph horiz-adv-x="2048" />
<glyph horiz-adv-x="2048" />
<glyph unicode="&#xd;" horiz-adv-x="2048" />
<glyph unicode=" "  horiz-adv-x="507" />
<glyph unicode="&#x09;" horiz-adv-x="507" />
<glyph unicode="&#xa0;" horiz-adv-x="507" />
<glyph unicode="!" horiz-adv-x="333" d="M131 281q0 42 3.5 361.5t4.5 346.5q2 34 5.5 242.5t2.5 208.5t18 -1t39 -2l19 -1l-4 -430q1 -19 -1.5 -194.5t-5.5 -350t-3 -178.5zM133 2l84 -4l-4 188q-19 -2 -38 -2.5t-38 0.5z" />
<glyph unicode="&#x22;" horiz-adv-x="561" d="M27 1149q1 -2 5 -4t26.5 4t58.5 25t57.5 54.5t25.5 61.5l3 25l-78 10v24.5t-0.5 47.5t-1.5 53t-2 20q-2 -1 40 -3t85 -3l43 -2q-2 -23 -5.5 -58.5t-18.5 -111t-34 -110.5t-69 -62.5t-90 -37.5l-41 -11zM250 1149q1 -2 5 -4t26.5 4t58.5 25t57.5 54.5t24.5 61.5l4 25 l-78 10v24.5t-0.5 47.5t-1.5 53t-2 20q-2 -1 40 -3t85 -3l43 -2q-2 -23 -5.5 -58.5t-18 -111t-33.5 -110.5t-69.5 -62.5t-91.5 -37.5l-40 -11z" />
<glyph unicode="$" horiz-adv-x="915" d="M59 1167q0 68 22 122t55.5 86t78.5 54t84.5 31.5t81.5 12.5q23 2 76 2v65q-1 0 18 -1l38 -2l19 -1q0 -31 -2 -70q161 -21 232 -104q36 -42 53 -102t18.5 -98t2.5 -38l-91 -8q7 107 -52.5 179t-162.5 96q-4 -255 -2 -285q0 -91 -6 -322q123 -81 201 -146.5t115 -139.5 q43 -85 48.5 -169t-27.5 -157t-122 -124t-223 -64v-101h-2h-5.5h-8.5t-10 -0.5t-11 -0.5h-10.5h-10h-8h-4.5l-2 1v99q-3 0 -8 -1t-8 -1q-61 0 -111 13t-84 34.5t-60.5 50t-41.5 59.5t-25 62t-13.5 59.5t-5 50t-0.5 34.5l1 13l76 -6q0 -28 4 -59t19 -75t39 -78t70.5 -60.5 t108.5 -30.5q12 -2 39 -2q0 60 -0.5 138.5t-1 135t-0.5 62.5q0 188 2 356q-56 37 -82.5 55t-75.5 54.5t-74 59t-59.5 58t-51 65t-28.5 66t-12 72.5zM150 1155q1 -34 18 -69t41 -63.5t66.5 -63.5t78 -59.5t90.5 -61.5q0 212 5 252q0 10 1 60.5t2.5 125t2.5 125.5 q-36 1 -72.5 -2.5t-81 -19t-77 -41t-54.5 -73t-20 -110.5zM514 47q59 4 108 20t93.5 48.5t69 92t22.5 140.5q-1 47 -23.5 92.5t-65.5 88.5t-88 78.5t-110 78.5q-1 -61 -2.5 -127.5t-2.5 -104.5t-1 -40v-367z" />
<glyph unicode="%" horiz-adv-x="817" d="M0 2q2 6 188 329t197 353q9 23 94 211t165.5 364t80.5 177q3 1 23.5 0.5t44.5 -1.5l24 -1q-335 -699 -360 -783q-11 -37 -101.5 -200.5t-175.5 -308.5l-84 -144q-86 0 -96 4zM66 1251q0 71 41.5 121.5t101.5 50.5t103.5 -51t43.5 -121t-43.5 -121t-103.5 -51t-101.5 50.5 t-41.5 121.5zM135 1253q0 -40 21.5 -69t52.5 -29q30 0 51 29t21 69q0 42 -21 71.5t-51 29.5q-31 0 -52.5 -30t-21.5 -71zM446 174q0 71 42 121.5t102 50.5t103.5 -51t43.5 -121t-43.5 -121t-103.5 -51t-102 50.5t-42 121.5zM516 176q0 -40 21.5 -69t52.5 -29q30 0 51 29 t21 69q0 42 -20.5 71t-51.5 29t-52.5 -29.5t-21.5 -70.5z" />
<glyph unicode="&#x26;" horiz-adv-x="1167" d="M86 289q0 56 20 111t50 99.5t79 92.5t92.5 84t104.5 80q-144 178 -188 254q-30 53 -40.5 115t4.5 122.5t52 110t108 80t167 30.5q100 0 168 -22.5t107.5 -69t56 -107.5t16.5 -147q0 -33 -10.5 -65t-24.5 -58t-43 -57t-50.5 -51t-63.5 -52t-65.5 -48.5t-72.5 -49.5 l338 -413q44 55 85 115t60 93l19 33l75 -22q-73 -138 -192 -277l184 -223l-43 -57q-81 92 -192 221q-220 -231 -426 -236q-375 -6 -375 314zM174 291q0 -63 18.5 -109.5t45.5 -71.5t68 -39t75.5 -17.5t77.5 -2.5q186 3 381 215q-128 149 -357 426q-70 -48 -118 -87 t-95.5 -90t-71.5 -107t-24 -117zM281 1159q2 -63 38 -117q17 -27 183 -237q157 114 208 163q93 89 93 165q0 146 -63 208.5t-203 59.5q-81 -1 -142 -37.5t-88.5 -89t-25.5 -115.5z" />
<glyph unicode="'" horiz-adv-x="385" d="M61 1149q1 -2 5 -4t27 4t59 25t57.5 54.5t24.5 61.5l4 25l-78 10v24.5t-0.5 47.5t-1.5 53t-2 20q-2 -1 40 -3t85 -3l43 -2q-2 -23 -5.5 -58.5t-18.5 -111t-34 -110.5t-69 -62.5t-91 -37.5l-40 -11z" />
<glyph unicode="(" horiz-adv-x="739" d="M111 469q0 105 17.5 254.5t43.5 222.5q142 412 463 412l4 -86q-30 -3 -48 -6.5t-50 -11.5t-57.5 -23t-56 -37.5t-60 -58.5t-56.5 -82q-50 -84 -80 -262t-30 -324q0 -157 76 -347t133 -245q54 -52 79 -67q73 -43 222 -37v-78h-43q-32 0 -60.5 -0.5t-57 3.5t-55 12 t-54.5 24.5t-55 40.5t-56 60.5t-58 84.5q-63 104 -112 263t-49 288z" />
<glyph unicode=")" horiz-adv-x="761" d="M78 -229q67 -3 113 2t81.5 22t50 28.5t46.5 42.5q7 6 10 9q57 55 133 245t76 347q0 145 -30.5 323.5t-80.5 262.5q-40 68 -84 113t-91.5 66t-77 28t-74.5 12l4 86q158 0 273.5 -99.5t188.5 -312.5q26 -73 44 -223t18 -254q0 -129 -49.5 -287.5t-112.5 -263.5 q-34 -56 -67.5 -96.5t-64.5 -64.5t-63.5 -38.5t-64 -19t-66 -6.5t-69.5 0h-43q-2 78 0 78z" />
<glyph unicode="*" horiz-adv-x="598" d="M27 784q6 5 33.5 26t81 61t89.5 67l-198 160l43 59l172 -133q0 177 4 209l80 4q0 -1 -4 -227l186 139l47 -57q-5 -4 -34 -26t-77 -59t-90 -69l195 -152l-45 -67q-22 14 -186 145q-1 -53 -2.5 -109.5t-3 -89t-1.5 -34.5l-73 -2q0 108 2 219q-141 -108 -166 -125z" />
<glyph unicode="+" horiz-adv-x="700" d="M31 735q70 0 258 -6q1 47 1.5 114t1 101.5t1.5 42.5l80 4q0 -73 -6 -264q203 -6 270 -6l2 -74q-141 0 -274 2q-7 -233 -7 -264l-73 -2q0 137 2 268q-46 1 -111.5 1.5t-99 1t-41.5 1.5z" />
<glyph unicode="," horiz-adv-x="483" d="M80 -162q6 -18 90 23q36 19 57.5 54.5t24.5 60.5l4 26l-78 10v24.5t-0.5 47.5t-1.5 53.5t-2 20.5q-2 -1 40 -3t85 -3l43 -2q-2 -23 -5.5 -58.5t-18 -111.5t-33.5 -111t-69.5 -62.5t-91.5 -38.5l-40 -10z" />
<glyph unicode="-" horiz-adv-x="677" d="M31 735q19 1 165.5 -2.5t290.5 -7.5t150 -4l2 -74q-38 0 -307.5 3.5t-296.5 4.5z" />
<glyph unicode="." horiz-adv-x="374" d="M94 14l12 146l148 -6v-152z" />
<glyph unicode="/" horiz-adv-x="935" d="M47 2q2 6 202 320t212 344q9 23 87 215.5t151 373t73 181.5q3 1 23.5 0.5t44.5 -1.5l24 -1q-307 -717 -332 -801q-11 -37 -108.5 -196t-189.5 -299l-91 -140q-86 0 -96 4z" />
<glyph unicode="0" horiz-adv-x="1155" d="M51 702q0 141 64 347q52 171 180.5 277t282.5 106q165 0 294.5 -124.5t190.5 -328.5q41 -131 41 -277q0 -117 -34.5 -249t-72.5 -185q-66 -92 -123 -151.5t-134.5 -100.5t-161.5 -41q-120 0 -221 66.5t-177 187.5q-129 205 -129 473zM141 700q0 -156 71 -324.5 t130 -225.5q97 -93 240 -93q122 0 223 86t159 233.5t58 323.5q0 141 -58.5 291t-117.5 221q-112 134 -264 134q-96 0 -181.5 -49.5t-146.5 -141.5q-113 -169 -113 -455z" />
<glyph unicode="1" horiz-adv-x="499" d="M20 1319l195 119v2q-1 0 18 -1t39 -2l19 -1l-4 -430q1 -19 -3 -187t-8 -334.5t-4 -171.5v-245h174l3 -60q-12 -1 -32.5 -2t-74 -4.5t-96.5 -5.5t-83.5 -3.5t-51.5 -0.5q-19 2 -37 2l6 69q55 3 121 3q0 44 -1 126.5t-1 88.5q0 42 3.5 361.5t4.5 346.5q0 11 1.5 71.5 t3.5 143.5t3 135l-166 -92q0 1 -0.5 2t-2.5 5.5t-3.5 8.5t-3.5 10t-4.5 11t-4.5 10.5t-4 10t-3 8t-2 5.5z" />
<glyph unicode="2" horiz-adv-x="796" d="M1.5 30.5q1.5 18.5 4.5 39.5l2 22q12 10 34 27t84 71t119.5 109t127.5 133.5t121.5 151.5t89 156t41.5 153q6 98 -9 179t-41.5 131.5t-62.5 85.5t-70.5 50t-66.5 17q-44 3 -121 -12.5t-132 -32.5l-54 -17l-5.5 11t-11 21.5t-11 23t-1.5 6.5q1 -1 31 13.5t78 31t108 30 t125 6t124.5 -36t111 -101.5t79.5 -185q27 -118 11 -229t-67 -213.5t-118 -191t-140 -161t-134.5 -124t-101.5 -79.5l-40 -28l670 2l-6 -90q-5 4 -386 6t-382 2q-2 4 -0.5 22.5z" />
<glyph unicode="3" horiz-adv-x="825" d="M43 113q1 -1 4.5 16.5t6.5 34.5l3 18q207 -98 244 -104q13 -2 36.5 -3.5t66.5 2t84 13.5t84 35.5t73 63.5t44.5 103t4.5 148q-7 53 -29 94t-52.5 63.5t-65.5 37.5t-68.5 19.5t-61 6t-44.5 -0.5l-17 -1v97q3 0 9 -0.5t24.5 1.5t36.5 6t42 15t45 26t42 41.5t36 60t24.5 82 t9.5 106.5q0 66 -18.5 114.5t-49.5 74.5t-71 41t-84 15.5t-88.5 -3.5t-84.5 -14.5t-71 -19.5t-50 -16l-18 -8q-27 59 -33 63q83 36 100 42q262 96 408 11q89 -52 125 -169q76 -247 -72 -417q-43 -50 -110 -91q10 0 29 -2t63.5 -17t80.5 -41.5t67.5 -83t35.5 -133.5 q4 -71 -8.5 -134.5t-38 -109.5t-61.5 -85t-77.5 -62t-87 -40t-90 -19t-85.5 2q-170 24 -293 121z" />
<glyph unicode="4" horiz-adv-x="944" d="M29 524l651 910v6q-1 0 18 -1l38 -2l20 -1v-4h4l-4 -9q-2 -30 -3.5 -209t-0.5 -208q0 -12 -9 -431q239 -13 250 -18q2 -4 0.5 -20.5t-3.5 -36.5l-3 -19q-125 13 -246 19q-1 -43 -2 -89.5t-1.5 -71t-0.5 -26.5v-245h174l2 -60q-12 -1 -32.5 -2t-74 -4.5t-96.5 -5.5 t-83.5 -3.5t-51.5 -0.5q-19 2 -36 2l6 69q55 3 121 3q0 44 -1 126.5t-1 88.5q0 108 2 223q-90 3 -136 0l-444 -49zM123 528q38 6 99.5 15.5t206.5 24t237 12.5q4 389 6 409q0 11 1 64t2.5 131t2.5 129z" />
<glyph unicode="5" horiz-adv-x="819" d="M2 846q4 17 11 45.5t26.5 105.5t36 145t33.5 138t27 111.5t9 40.5t32.5 -1h87h119t131 0.5t120 0.5h89.5h34q4 -4 4 -68q0 -3 -288 -7.5t-290 -2.5q-1 1 -26 -105.5t-50 -213.5l-24 -107q9 -1 24.5 -2.5t63 -8.5t94 -17t109 -29t116.5 -42.5t109.5 -59t94 -78t63 -100.5 t24.5 -124q0 -114 -19 -198.5t-52 -137.5t-84 -85.5t-107 -44.5t-129 -13q-205 -2 -322 97q-26 23 -32 34q1 -1 9 16l16 34l8 17q5 -5 13.5 -13t38 -28.5t62.5 -36t85 -28.5t106 -12q76 1 133.5 22t103 69t68 133.5t20.5 207.5q-1 68 -40.5 123.5t-101 90.5t-135.5 61.5 t-148 39t-135.5 20.5t-99.5 9z" />
<glyph unicode="6" horiz-adv-x="1015" d="M53 737q7 116 43 226t93 195.5t127 148.5t148 94t152 24q71 -6 132.5 -29t99.5 -51.5t66 -55.5t40 -45l11 -19q-62 -58 -64 -58l-7 8q-8 8 -20.5 21.5t-30 30t-40 34t-46.5 32.5t-53 26.5t-57 15.5q-105 14 -192.5 -31.5t-171.5 -160.5q-49 -67 -79.5 -154t-41 -158 t-11 -153.5t2.5 -120t8 -78.5q0 29 6 61.5t32 81.5t68 85.5t125 62.5t193 23q86 -2 152.5 -27t106.5 -63t66 -90.5t36 -103.5t11 -108q2 -107 -36.5 -195.5t-99.5 -141t-130.5 -78.5t-132.5 -19q-146 15 -266 122.5t-185.5 280t-54.5 367.5zM231 422q-1 -40 9 -85t36 -93.5 t64.5 -88t100 -67.5t137.5 -33q50 -3 92.5 10t71.5 39t50.5 55t35.5 65t21.5 60.5t12.5 49.5l6 26q2 8 3.5 27.5t-1.5 51.5t-10.5 66t-26.5 69.5t-47.5 64t-76 47.5t-107.5 21q-90 3 -158.5 -15.5t-107.5 -47.5t-63 -70.5t-32.5 -77t-9.5 -74.5z" />
<glyph unicode="7" horiz-adv-x="690" d="M20 1343q3 89 5 89h23q22 0 59 0.5t85 0.5t101 0.5t106.5 0.5t101.5 0.5t85 0.5t60 -1h22l-4 -9q-146 -364 -246 -622q188 -4 188 0v-7q0 -8 -0.5 -19.5l-1 -23t-1 -20t-1.5 -8.5l-12 1q-12 0 -33 0.5t-46 1.5t-57.5 1.5t-62.5 1.5l-35 -98q-11 -37 -66.5 -196.5 t-105.5 -300.5l-49 -140q-86 0 -96 4l246 666l24 65q-157 4 -157 2l2 72q86 -2 182 -2l207 547z" />
<glyph unicode="8" horiz-adv-x="847" d="M27 360q0 87 28 155.5t67.5 104.5t79 59t67.5 29l28 7q-5 2 -14 7t-35 22t-49 37.5t-51 55t-47.5 73t-31.5 92t-10 112.5t18.5 107.5t40 81t56.5 57t64.5 38t68.5 21.5t64 10.5t55 2.5q33 0 68 -6.5t76.5 -20t77.5 -40t66.5 -62t48 -89.5t17.5 -120q0 -44 -8.5 -85 t-22.5 -73t-32 -61t-38.5 -50.5t-40.5 -39.5t-38 -30.5t-32 -20.5t-22 -12l-9 -5l9 -1q10 -2 26.5 -6t38 -11t45 -20.5t47.5 -32t45 -47t38 -64t27 -85.5t10 -108q1 -79 -21.5 -143t-60 -105t-89 -68.5t-105.5 -39t-113 -11.5q-52 0 -105 11.5t-108 39.5t-97.5 70.5 t-69.5 110.5t-27 153zM102 348q0 -129 104.5 -222t235.5 -93q128 0 219 92.5t91 224.5q0 130 -99.5 226t-228.5 96q-128 0 -225 -96.5t-97 -227.5zM141 1057q0 -73 44.5 -142.5t112 -112t134.5 -42.5q99 0 183.5 105t84.5 220q0 112 -83.5 192.5t-198.5 80.5 q-90 0 -154.5 -45t-93.5 -111.5t-29 -144.5z" />
<glyph unicode="9" horiz-adv-x="995" d="M31 172q61 57 63 57l8 -8q7 -8 19.5 -21.5t30 -30t40 -34t46.5 -32.5t53 -26.5t57 -15.5q105 -14 193 32t172 161q48 67 78.5 153t41 156.5t11.5 152.5t-2 120t-8 79q0 -19 -3 -40.5t-14 -54t-28.5 -61.5t-50 -59t-75.5 -51.5t-108.5 -34t-144.5 -10.5q-86 2 -152.5 27 t-107 63t-66.5 90.5t-36 103t-11 107.5q-2 107 36.5 194t100 138t130 78t132.5 25q131 -3 233.5 -67.5t163.5 -172t89.5 -243.5t19.5 -288q-7 -116 -43 -226t-93 -195.5t-127 -148.5t-148 -94t-152 -24q-71 6 -132.5 29.5t-99.5 51.5t-65.5 55.5t-39.5 46.5zM123.5 1001.5 q-0.5 -25.5 3 -65t20.5 -80.5t44 -77.5t79.5 -61.5t122.5 -27q90 -3 158.5 15.5t107.5 47.5t63 70.5t32.5 77t9.5 74.5q1 46 -3.5 87t-24.5 94t-55.5 91t-103 65t-159.5 29q-44 1 -82.5 -11t-65.5 -31t-50 -46t-37 -52.5t-25.5 -55t-16.5 -49.5t-9.5 -39.5t-4.5 -20.5 q-3 -9 -3.5 -34.5z" />
<glyph unicode=":" horiz-adv-x="354" d="M100 16l13 146l147 -6v-152zM100 410l13 145l147 -6v-152z" />
<glyph unicode=";" horiz-adv-x="333" d="M-6 -162q14 -14 90 23q36 19 57.5 54.5t24.5 60.5l4 26l-78 10v24.5t-0.5 47.5t-1.5 53.5t-2 20.5q-2 -1 40 -3t85 -3l43 -2q-2 -23 -5.5 -58.5t-18 -111.5t-33.5 -111t-69.5 -62.5t-91.5 -38.5l-40 -10zM98 410l13 145l147 -6v-152z" />
<glyph unicode="=" horiz-adv-x="757" d="M31 551q19 1 186.5 -2.5t333 -7.5t170.5 -4l2 -74q-41 0 -351 3.5t-337 4.5zM31 815q19 1 186.5 -2.5t333 -7.5t170.5 -4l2 -74q-41 0 -351 3.5t-337 4.5z" />
<glyph unicode="?" horiz-adv-x="761" d="M23 1401q-1 0 17.5 5.5t52 14t74.5 17.5t92 15.5t97 8.5q58 2 107.5 -2.5t113.5 -29.5t105.5 -69.5t64.5 -131.5t9 -207q-9 -79 -45 -144.5t-85.5 -107.5t-107.5 -74.5t-114 -49.5t-102 -27.5t-74 -13.5l-29 -3q24 -323 28 -323l-84 -3l-28 375q14 7 81.5 21.5t140.5 37 t150 58.5t131 100.5t62 149.5q8 87 -5 152.5t-40.5 104.5t-71 64t-88 34t-100.5 11q-76 3 -156.5 -12.5t-122.5 -31.5l-43 -17q-28 78 -30 78zM154 2l84 -4l-5 188q-19 -2 -37.5 -2.5t-37.5 0.5z" />
<glyph unicode="@" horiz-adv-x="1382" d="M33 571q-1 148 29 274t78.5 212.5t113.5 151t132 98t136 45.5q21 9 111 16.5t209 -5.5t178 -54q44 -31 65.5 -87t22.5 -127.5t-5 -138t-14 -147t-8 -127.5q0 -86 8.5 -250.5t17.5 -286.5l9 -122q-82 2 -82 6l-12 172q-9 -6 -25 -17t-63.5 -37.5t-92 -46.5t-102.5 -35.5 t-104 -13.5q-53 0 -109 14.5t-115 53t-101.5 95t-62.5 150t-3 209.5q13 83 61 142.5t114.5 88.5t143.5 46t152 22t137 9t100 14.5t39 32.5q1 30 8 76t9.5 76t0 65t-20.5 62.5t-52 49.5q-40 26 -112 36t-131 6.5t-118.5 -9.5t-60.5 -6q-4 -4 -4 -2q0 1 -13.5 -2.5t-36 -13 t-52 -26t-62 -45t-65.5 -65.5t-63.5 -92t-54.5 -120.5t-39 -154.5t-18 -190q-3 -133 28.5 -246t86.5 -190t127.5 -135.5t151.5 -89.5t157.5 -44.5t146.5 -7.5t118 27q70 30 108.5 50t97.5 70t88 109t46 160.5t4 231.5l-62 641q4 1 9.5 2t21.5 3.5t21.5 3t9.5 -0.5l4 -25 q4 -24 10 -65.5t13.5 -97.5t15 -122t13.5 -136t9 -143.5t3 -140.5t-5.5 -129.5t-17.5 -109.5q-35 -140 -150.5 -239t-266.5 -134.5t-300 -4.5q-113 23 -213 85.5t-178 157.5t-123.5 229t-46.5 289zM322 476.5q-2 -54.5 9 -97t32.5 -81.5t44.5 -66.5t49 -49.5 q47 -40 120.5 -49t145 7t137 40.5t107 49.5t45.5 36q6 15 -1 155t-17 273.5t-11 130.5q3 -3 -98 -22q-35 -7 -113 -21q-13 -2 -48.5 -4.5t-65.5 -6t-71 -10.5t-75.5 -20t-68.5 -32.5t-59.5 -51t-39.5 -71.5q-20 -55 -22 -109.5z" />
<glyph unicode="A" horiz-adv-x="989" d="M43 4q-1 -1 26 113.5t71.5 301t88.5 367.5q-15 3 -24 9q-30 11 -66.5 40.5t-58.5 53.5l-21 24l43 48q25 -31 97 -74q27 -17 49 -25q135 561 135 563t28.5 3t56.5 2h28l493 -1426q-82 -12 -84 -12q-1 0 -252 758q-45 -2 -83 -2t-70 2q-142 10 -191 18q-151 -646 -153 -651 l-47 -117zM328 844q16 -2 49 -2q82 -10 252 -23q-177 537 -180 537q-4 0 -121 -512z" />
<glyph unicode="B" horiz-adv-x="1052" d="M123 0v-1l3 365q2 386 4 690q1 130 0 217q0 117 -1 159q-2 4 28.5 11t76 13t79.5 6q29 0 57.5 -1t94 -7t120 -17t121 -34.5t113 -56t79 -84t34.5 -115.5v-7q0 -228 -435 -405q-71 -29 -71 -32q0 -2 12 -1q10 1 22 1q29 0 69 -4q56 -5 129 -20t140 -39t123.5 -65t79.5 -92 q20 -51 20 -102q-1 -18 -3 -35q-10 -68 -47.5 -131.5t-82.5 -110t-89 -73.5q-47 -29 -217 -34q-74 -2 -143 -2q-89 -1 -171 3q-99 4 -131 5q-14 0 -14 -1zM196 131q0 -58 1 -57t48.5 -4t119.5 -10q73 -4 149 -5q10 0 20 -1q65 0 125 8q69 10 101 32q90 63 152 180 q37 70 37 119q0 34 -17 58q-28 41 -117.5 86t-190.5 73q-86 24 -143 24q-10 0 -20 -1q-24 -2 -51 -2q-33 0 -69 3q-65 5 -102 10t-38 3t-2.5 -62t-2 -144t-0.5 -168v-77.5v-64.5zM207 1231q2 -158 2 -315v-158q13 2 35 5t86 16.5t122.5 30t130.5 46t124.5 64t90 85 t40.5 107.5v19q0 31 -4 57q-6 34 -19.5 59t-34 45.5t-41.5 33.5t-48.5 23t-49.5 15t-49.5 9t-44 4.5t-37.5 1.5t-25 1q-61 4 -175 9q-71 3 -96 3q-13 0 -13 -1z" />
<glyph unicode="C" horiz-adv-x="925" d="M53 705v18q1 207 109 395q114 196 282 258q100 38 210 52q93 12 151 12h19q60 -2 59 -6l-4 -72q-5 -2 -26 0q-6 0 -13 1q-20 0 -55 -3q-47 -4 -96.5 -10t-111.5 -22t-112 -40q-139 -65 -224 -215.5t-94 -365.5v-22q0 -130 65 -267q71 -149 177.5 -245t202.5 -101 q21 -1 41 -1q34 0 66 3q51 5 84 14t57.5 18t35.5 16l11 7l18 -92q-13 -6 -37 -14.5t-106 -22.5q-76 -13 -158 -12h-12q-74 1 -153 47.5t-146 123.5t-121 169.5t-85.5 192t-33.5 184.5z" />
<glyph unicode="D" horiz-adv-x="1058" d="M124 75.5q0 79.5 0.5 206t1 282.5t1.5 308t1.5 283t0.5 207v80q267 0 412 -17q48 -6 107.5 -35t123.5 -85t116 -129t86 -176t34 -216q0 -140 -50 -285.5t-120.5 -249.5t-146 -173t-128.5 -74q-61 -6 -170 -7q-54 0 -101.5 -0.5t-86.5 0.5q-79 1 -80 1t-1 79.5zM209 74 q13 -1 35 -3t80 -5q50 -3 94 -3q7 1 14 1q49 0 99 8t71 24q31 24 80 85t101.5 145.5t94 194t50.5 208.5q2 25 2 50q0 77 -21 157q-28 104 -80 186t-122 139.5t-142 73.5q-87 19 -175 24q-49 3 -85 3q-28 0 -48 -2q-45 -4 -44 -8z" />
<glyph unicode="E" horiz-adv-x="937" d="M123 281q0 42 3.5 361.5t4.5 346.5q1 35 5 243q3 162 3 198v10q-1 0 18 -1t39 -2l19 -1q12 0 33 0.5t37 0.5t28 -1q23 -2 151 -2h71q64 0 111 1q94 0 118 -1q26 -1 63.5 1t60.5 4q15 1 20 1h3l7 -80l-705 4q-3 -191 -3 -283q0 -55 1 -75q0 -76 -6 -287q51 3 82 3 q15 0 26 -1q29 -2 165.5 -2.5t158.5 -1.5q24 -1 65 -1.5t65 -1t24 -1.5l2 -68l-588 4q-8 -328 -7 -336v-247q12 0 54.5 1.5t60.5 0.5q23 -2 151 -2h71q64 0 111 1q94 0 118 -1q26 -1 63.5 1t60.5 4t23 1l7 -80l-775 6v2h-18q1 11 1 36v30q0 50 -1.5 126.5t-1.5 88.5z" />
<glyph unicode="F" horiz-adv-x="876" d="M123 281q0 42 3.5 361.5t4.5 346.5q1 35 5 243q3 162 3 198v10q-1 0 18 -1t39 -2l19 -1q12 0 33 0.5t37 0.5t28 -1q23 -2 158 -2h74q68 0 117 1q98 0 122 -1q26 -1 64 1q36 2 60 4q16 1 21 1h3l6 -80l-725 4q-3 -191 -3 -283q0 -55 1 -75q0 -76 -6 -287q51 3 82 3 q15 0 26 -1q29 -2 165.5 -2.5t158.5 -1.5q24 -1 70 -1.5t75 -1t29 -1.5l2 -68l-608 4q-8 -328 -8 -336v-313h-2h-5.5h-8.5t-10 -0.5t-11 -0.5h-10.5h-10h-8t-5.5 1h-1q1 11 1 36v30q0 50 -1.5 126.5t-1.5 88.5z" />
<glyph unicode="G" horiz-adv-x="995" d="M56 820q5 77 31.5 146t59 122.5t75 97.5t81 73.5t76.5 49.5q39 20 95.5 40t110 34.5t101.5 26t78 18.5l29 6l4 -58q-14 -2 -39 -7t-96 -26.5t-135.5 -49t-142 -78.5t-132.5 -112.5t-90 -152.5q-32 -81 -32 -172q0 -13 1 -26q5 -123 41 -229t88.5 -176.5t114 -124 t121.5 -81.5t108 -40q33 -8 56 -8q10 0 18 1q72 12 145 12l56 574q-271 -27 -353 -33q-11 -1 -22 -1q-27 0 -58 5q-43 7 -68 15l-26 8q15 69 15 71q0 1 22 -2.5t55 -10.5t56 -13q10 -2 34 -2q35 0 104 5q113 9 214 22l102 12l-63 -697q0 -3 -19 -6.5t-34 -3.5v-4 q-106 -29 -256 -31h-2q-57 0 -135 48q-80 49 -158.5 130.5t-142 204t-83.5 252.5q-7 62 -7 117q0 28 2 54z" />
<glyph unicode="H" horiz-adv-x="1091" d="M-86 926l55 18q1 1 4 -12.5t11 -42.5t20 -58q4 -10 8 -18t7.5 -14.5t9.5 -12t9 -9t12 -7.5t11.5 -6t15 -5.5t16 -4.5t19.5 -5.5t21 -5.5q47 -12 80 -12q0 226 4 258q1 35 5 243q3 162 3 198v10q-1 0 18 -1t39 -2l19 -1l-4 -430q0 -76 -6 -287q51 3 82 3q15 0 26 -1 q29 -2 165.5 -2.5t158.5 -1.5q23 -1 82.5 -2t75.5 -2q1 51 1.5 123.5t1 108.5t1.5 44q1 35 5 243q3 162 3 198v10q-1 0 18 -1t39 -2l19 -1l-4 -430q0 -4 1 -14q0 -39 -4 -173q-4 -168 -8 -334.5t-4 -171.5v-313h-2h-5.5h-8.5t-9.5 -0.5t-10.5 -0.5h-10.5h-10h-8t-5.5 1h-1 q1 11 1 36v30q0 50 -1.5 126.5t-1.5 88.5q0 192 2 364l-588 4q-8 -328 -8 -336v-313h-2h-5.5h-8.5t-10 -0.5t-11 -0.5h-10.5h-10h-8t-5.5 1h-1q1 11 1 36v30q0 50 -1.5 126.5t-1.5 88.5q0 202 2 378q-16 1 -96 15q-46 8 -84 37t-59 64.5t-35 70t-19 57.5z" />
<glyph unicode="I" horiz-adv-x="438" d="M41 1382l2 60q-1 1 37 1t92 -0.5t108 -1.5t92 -2l38 -1q4 -70 6 -70q-6 0 -37 -2q-4 -1 -19 -1q-30 0 -102 3q-4 -184 -4 -278q0 -62 2 -84v-16q0 -41 -2 -171q-4 -168 -8 -334.5t-4 -171.5v-245h174l2 -60q-12 -1 -32.5 -2t-74 -4.5t-96.5 -5.5t-83 -4q-24 -1 -38 0h-14 q-20 2 -37 2l6 69q55 3 121 3q0 44 -1 126.5t-1 88.5q0 42 3.5 361.5t4.5 346.5q2 24 8 383z" />
<glyph unicode="J" horiz-adv-x="417" d="M-307 -139l61 22q4 -9 11.5 -23.5t33.5 -52t54.5 -68t72 -58.5t88.5 -35q33 -5 59 2t42.5 20t28 38t17 44t8 51t3 46.5t0.5 41.5v111h-2q1 11 1 36q0 13 -1 30q0 49 -1 126t-1 89q0 42 3.5 361.5t4.5 346.5q2 24 8 383l-143 10l2 60q-1 1 37 1t92 -0.5t108 -1.5t92 -2 l38 -1q4 -70 6 -70q-6 0 -37 -2q-4 -1 -19 -1q-30 0 -102 3q-4 -184 -4 -278q0 -62 2 -84v-16q0 -40 -2 -171q-4 -168 -8 -334.5t-4 -171.5v-313q0 -223 -11 -268q-5 -19 -18.5 -42.5t-35.5 -51t-55 -45t-72 -23.5q-10 -1 -20 -1q-32 0 -72 13q-52 19 -108 64 q-50 40 -89.5 94t-53.5 88z" />
<glyph unicode="K" d="M123 281q0 42 3.5 361.5t4.5 346.5q1 35 5 243q3 162 3 198v10q-1 0 18 -1t39 -2l19 -1l-4 -430q0 -7 -0.5 -37.5t-1.5 -90.5t-2 -106q145 74 174 98q20 16 144.5 164.5t238.5 289.5l115 140q2 -2 6 -4.5t14 -9t19 -12.5t18.5 -12.5t14.5 -9.5l5 -3q-1 0 -41 -47.5 t-115 -137.5t-132 -157l2 -6q12 -48 33 -129.5t81 -293.5t114 -381t119 -323.5t109 -189.5v-92q-60 24 -130.5 150.5t-131 297t-100.5 299.5t-64 224l-96 370q-139 -164 -168 -186q-59 -47 -231 -131q-8 -348 -8 -367v-313h-2h-5.5h-8.5t-10 -0.5t-11 -0.5h-10.5h-10h-8 t-5.5 1h-1q1 11 1 36v30q0 50 -1.5 126.5t-1.5 88.5z" />
<glyph unicode="L" horiz-adv-x="389" d="M123 -137l12 205q0 43 -1 125t-1 88q0 42 3.5 361.5t4.5 346.5q2 35 6 243q3 166 3 200v8q-1 0 18 -1l38 -2l19 -1l-4 -430v-16q-1 -41 -3 -171q-4 -168 -7.5 -334.5t-3.5 -171.5v-313h-2q0 -56 -4 -72q-1 -2 11 -5q9 -2 39 -6q171 -27 261 -67q25 -11 54.5 -25.5 t48 -23.5t41.5 -19t40.5 -15.5t38 -9t40.5 -2.5t42 5q46 10 87.5 32.5t59.5 39.5l19 18q3 -4 7 -10t13 -19t14.5 -21.5t4.5 -8.5l-8 -7q-9 -6 -23 -16.5t-34.5 -22.5t-44.5 -23.5t-53 -20.5t-60 -12q-16 -2 -31.5 -1.5t-32.5 1.5q-68 8 -135 34t-132.5 59.5t-102.5 45.5 t-97.5 21t-102.5 11z" />
<glyph unicode="M" horiz-adv-x="1241" d="M123 281q0 42 3.5 361.5t4.5 346.5q1 26 4.5 218t3.5 220l-2 7h2v6q-1 0 18 -1t39 -2l19 -1v-2h4l408 -1104l409 1104h6v6q-1 0 18 -1l38 -2l20 -1l-4 -430v-16q0 -41 -2 -171q-4 -168 -8 -334.5t-4 -171.5v-313h-2h-5.5h-8.5t-10 -0.5t-11 -0.5h-10.5h-10h-8t-4.5 1h-2 q1 11 1 36q-1 14 -1 30q0 50 -1 126.5t-1 88.5q0 42 3.5 361.5t4.5 346.5q0 8 1 43.5t2.5 91t2.5 99.5l-370 -1000h-84l-375 1010v-227v-16q-1 -41 -3 -171q-4 -168 -7.5 -334.5t-3.5 -171.5v-313h-2h-5.5h-8.5t-10 -0.5t-11 -0.5h-10.5h-10h-8t-5.5 1h-1q1 11 1 36v30 q0 50 -1.5 126.5t-1.5 88.5z" />
<glyph unicode="N" horiz-adv-x="1038" d="M123 281q0 42 3.5 361.5t4.5 346.5q1 35 5 243q3 162 3 198v10q-1 0 18 -1t39 -2l19 -1v-4l16 -2l611 -1258q4 430 4 576q0 34 -4.5 253t-7.5 240q-1 5 -1.5 15t-1 22.5t-1 27t-1 29.5t-1 29t-0.5 26.5t-0.5 22t-0.5 14.5v5q0 -1 21 1.5t42 5.5l21 3q-1 -51 -1 -89 q0 -76 3 -100q1 -10 1 -323.5t-1 -929.5q0 -1 -17.5 0t-35.5 2t-18 0l-629 1288q-3 -169 -3 -239q0 -35 1 -45v-16q-1 -41 -3 -171q-4 -168 -7.5 -334.5t-3.5 -171.5v-313h-2h-5.5h-8.5t-10 -0.5t-11 -0.5h-10.5h-10h-8t-5.5 1h-1q1 11 1 36v30q0 50 -1.5 126.5t-1.5 88.5z " />
<glyph unicode="O" horiz-adv-x="1183" d="M51 702q0 141 64 347q38 124 118 213q71 80 164 125t191 45q205 0 360 -189q46 40 82 53q55 20 106 29t75 9l24 -1v-88q-15 1 -39 0.5t-81 -13t-93 -36.5l-27 -20q51 -81 88 -197q41 -131 41 -277q0 -117 -34 -249t-72 -185q-99 -139 -203 -216t-227 -77 q-121 0 -227 67.5t-181 186.5q-129 205 -129 473zM141 700q0 -156 71 -324.5t130 -225.5q48 -45 115 -69t135 -24q122 0 225.5 86t164 234t60.5 323q0 196 -114 416q-53 -44 -100 -76t-117.5 -67.5t-152.5 -49.5q-46 -8 -92 -8q-37 0 -75 5q-163 18 -186 141 q-64 -155 -64 -361zM233 1262l11 -11q0 4 -3 7t-5 4h-3zM273 1118q-1 -20 9 -43q10 -25 31 -42.5t65 -28.5q37 -9 86 -9h19q68 2 128 19t111.5 48.5t85.5 57.5t77 66l-19 26q-54 64 -125.5 99t-148.5 35q-82 0 -159.5 -36t-137.5 -102q-2 -5 -5.5 -13t-9.5 -31 q-7 -25 -7 -46z" />
<glyph unicode="P" d="M-266 838q6 3 17.5 7t51.5 13q39 8 85 12q20 2 46 2q32 0 74 -2q74 -4 152 -22q4 140 4 141q1 27 4.5 206.5t3.5 221.5q-4 19 -2 21h2v2q2 -2 6 -2q21 3 50.5 5t86.5 4q28 1 56.5 0.5t56.5 -0.5q56 -2 125.5 -11t130.5 -24t120 -43.5t101.5 -66t68.5 -94.5t27 -127v-6 q1 -69 -21 -127q-22 -60 -59.5 -98.5t-88.5 -66t-105 -41.5q-53 -14 -113 -20q-55 -6 -103 -6h-7q-50 0 -97.5 4.5t-73 8t-40.5 6.5l-53 10q-2 -84 -4.5 -190.5t-4.5 -172t-2 -69.5v-313h-2h-5.5h-8.5t-9.5 -0.5t-10.5 -0.5h-10.5h-10h-8t-4.5 1h-2q1 11 1 36q-1 14 -1 30 q0 50 -1 126.5t-1 88.5q0 79 4 477q-196 27 -264 27q-11 0 -19 -1q-33 -4 -60.5 -12t-38.5 -14l-11 -6zM242 831q90 -15 180 -20q29 -2 58 -2q60 -1 122 7q90 10 159.5 36t113 77.5t45.5 123.5v6q0 73 -24 125q-26 54 -79.5 88t-115.5 54t-150 34q-122 18 -220 18 q-45 0 -85 -4q-4 -185 -4 -280q0 -64 2 -88q0 -85 -2 -175z" />
<glyph unicode="Q" horiz-adv-x="1148" d="M51 702q0 141 64 347q52 170 185 276.5t288 106.5q166 0 300 -125t195 -328q41 -131 41 -277q0 -117 -34 -249t-72 -185q-59 -80 -119 -143q23 -18 54.5 -46t39.5 -34q29 -23 81 -31q38 -7 69 -7q10 0 20 1l37 2l-4 -90q-8 -2 -23 -4q-4 -1 -12 -1q-17 0 -52 4 q-49 6 -101 28q-12 5 -26.5 13.5t-25 15.5t-30 21.5t-28 21.5t-32.5 26.5t-30 24.5q-119 -95 -248 -95q-121 0 -227 67.5t-181 186.5q-129 205 -129 473zM141 700q0 -125 45.5 -258t104.5 -225q153 78 287 78q109 0 268 -125q91 88 143.5 227.5t52.5 302.5q0 141 -58.5 291 t-117.5 221q-54 64 -125.5 99t-148.5 35q-97 0 -187 -50t-151 -141q-113 -169 -113 -455zM342 150q48 -45 115 -69t135 -24q97 0 186 58q-124 97 -198 104q-9 1 -18 1q-101 0 -220 -70z" />
<glyph unicode="R" d="M-285 838q6 3 17.5 7t51.5 13q40 8 86 12q20 2 45 2q31 0 73 -2q74 -4 153 -22q4 140 4 141q1 27 5 207.5t4 220.5q-4 19 -2 21h2v2q2 -2 6 -2q21 3 50.5 5t86.5 4q28 1 56.5 0.5t56.5 -0.5q56 -2 125.5 -11t130.5 -24t120 -43.5t101.5 -66t68.5 -94.5q27 -59 27 -130 q0 -291 -340 -349q33 -48 55 -111l105 -239q35 -82 58.5 -133t51.5 -109t49.5 -93t48 -72t52.5 -60t56.5 -42.5t66.5 -33.5q34 -12 63 -12q14 0 27 3q40 8 70.5 32.5t50.5 51.5t31 48l10 21l57 -60q-3 -7 -9.5 -19t-31.5 -42t-56 -52q-30 -21 -84 -37q-43 -12 -91 -13 q-12 0 -25 1q-53 4 -99.5 25t-77.5 48.5t-61 67.5t-47 70.5t-37.5 70t-29.5 54.5q-24 37 -211 469q-32 75 -51 109q-14 28 -72 45q-19 -1 -38 -1q-105 0 -200 19l-53 10q-2 -83 -4.5 -190t-4 -172t-1.5 -70v-313h-2h-5.5h-8.5t-10 -0.5t-11 -0.5h-10.5h-10h-8t-5.5 1h-1 q1 11 1 36v30q0 50 -1.5 126.5t-1.5 88.5q0 79 4 477q-196 27 -264 27q-11 0 -18 -1q-33 -4 -60.5 -12t-38.5 -14l-12 -6zM223 831q91 -15 181 -20q29 -2 57 -2q61 -1 123 7q90 10 159 36t112.5 77.5t45.5 123.5v6q-1 73 -25 125q-26 54 -79 88t-115 54t-150 34 q-122 18 -220 18q-45 0 -85 -4q-4 -185 -4 -280q0 -64 2 -88q0 -85 -2 -175z" />
<glyph unicode="S" horiz-adv-x="933" d="M53 1167q0 68 22 122t55.5 86t78.5 54t84.5 31.5t81.5 12.5q26 2 53 2q80 0 162 -20q109 -27 166 -93q36 -42 52.5 -102t18 -98t2.5 -38l-90 -8q1 13 1 26q0 104 -66 170q-74 75 -201 87q-20 0 -47.5 2t-59.5 -4t-63.5 -14.5t-61 -28t-51.5 -44.5q-24 -26 -36 -66 q-12 -38 -11 -82v-7q2 -65 60.5 -131.5t147 -127t181.5 -120.5t178 -133.5t121 -144.5q37 -74 47 -146q4 -24 4 -47q0 -47 -14 -92q-21 -67 -73 -119t-148 -83t-227 -31q-61 0 -111 13t-84 34.5t-60.5 50t-41.5 59.5t-25 62t-13.5 59.5t-5 50t-0.5 34.5l1 13l76 -6 q0 -28 4 -59t19 -75t39 -78t70.5 -60.5t108.5 -30.5q22 -3 46 -3q19 0 40 2q46 4 91.5 11t87.5 29.5t73.5 54t49.5 85.5q16 48 16 108v14q-2 63 -44 125.5t-108.5 115t-146 105.5t-158.5 107t-144.5 109t-106 121.5t-40.5 135.5z" />
<glyph unicode="T" horiz-adv-x="770" d="M0 1382l6 84q13 -3 44.5 -12t57 -12.5t62.5 -3.5q119 0 265.5 14t233.5 26l87 13q0 -1 4 -21q3 -20 6 -38q2 -14 2 -16l-38 -6q-36 -6 -104.5 -16t-127.5 -16q-63 -8 -92 -10q0 -255 8 -379q1 -27 4.5 -346.5t3.5 -361.5q0 -12 -1 -89q-1 -76 -1 -126q0 -16 -1 -30 q0 -26 1 -36q1 -1 -17 -1t-37 1h-18v313q0 5 -4 171.5t-8 334.5q-3 131 -2 171v16q0 126 -4 356q-43 -3 -86 -3q-121 0 -244 23z" />
<glyph unicode="U" horiz-adv-x="1064" d="M102 1436q2 0 6 0.5t14 1t19 0.5t18 0.5t14 1.5h5v-10q0 -36 2 -198q4 -208 6 -243q7 -119 8 -348v-132q0 -110 -1 -136q2 -24 8.5 -54t28 -74t54 -79t91.5 -61.5t135 -28.5h16q70 0 128 24q64 28 101 65.5t63.5 87.5t35 78t12.5 50q-12 515 -12 607v18l-4 430q2 0 6 0.5 t14 1t19 0.5t18 0.5t14 1.5h5v-10q0 -36 2 -198q4 -208 6 -243q2 -32 8 -602v-106q0 -12 -1 -89q-1 -76 -1 -126q0 -16 -1 -30q0 -26 1 -36q1 -1 -17 -1t-37 1h-18v188q-114 -184 -339 -184h-19q-79 3 -143 26t-103.5 54.5t-69 74.5t-43 79t-22 73.5t-9.5 52.5t-1 23 l-13 619z" />
<glyph unicode="V" horiz-adv-x="983" d="M0 1427l86 7l418 -1305q207 503 219 537q9 24 51 216t79.5 372t37.5 182q2 1 12 1q5 -1 11 -1q20 0 45 -1l24 -1q-163 -717 -188 -801q-11 -37 -72.5 -196t-117.5 -299l-56 -140q-86 0 -96 4z" />
<glyph unicode="W" horiz-adv-x="1331" d="M0 1427l76 7l377 -1330l204 510l-151 535l76 6l114 -416q13 61 31 163t29.5 173.5t11.5 73.5q3 1 21.5 0.5t40.5 -1.5l22 -1q-86 -430 -111 -514l-8 -25l141 -504l228 564q9 24 45 215.5t68 370.5t32 182q2 1 11 1q4 -1 10 -1q18 0 41 -1l22 -1q-143 -717 -168 -801 q-11 -37 -72.5 -196t-116.5 -299l-56 -140q-72 0 -82 4h-2l-142 494l-196 -498q-72 0 -82 4h-2z" />
<glyph unicode="X" horiz-adv-x="899" d="M20 2q2 6 202 320t212 344q2 6 2 8l-389 753l86 7l344 -662l268 664q2 1 12 1q5 -1 12 -1q21 0 45 -1l24 -1q-242 -566 -314 -752l355 -682l-93 2l-303 582q-37 -70 -128.5 -216.5t-164.5 -257.5l-73 -112q-87 0 -97 4z" />
<glyph unicode="Y" horiz-adv-x="882" d="M20 1430q0 2 46 2.5t47 -0.5l151 -281l211 -379q199 436 209 463q5 13 25 63.5t38.5 95.5t18.5 44t10 -1.5t24 -1.5t28 -1.5t23 -1.5h9q-1 0 -133 -293.5t-141 -313.5l-62 -141q-1 -42 -5 -127.5t-6.5 -150t-2.5 -87.5v-313h-2h-5.5h-8.5t-10 -0.5t-11 -0.5h-10.5h-10h-8 t-4.5 1h-2q1 11 1 36q0 13 -1 30q0 49 -1 126t-1 89q0 241 6 360q-231 398 -243 436q-5 14 -50 100.5t-87 166t-42 80.5z" />
<glyph unicode="Z" horiz-adv-x="1040" d="M41 2v66q340 601 412 675q33 33 141.5 184t201.5 286.5t91 136.5l-719 -9v91q21 -1 110 -1h106q184 1 398 3l215 2l2 -88q-356 -511 -438 -609q-36 -43 -143.5 -208.5t-196.5 -308.5q-88 -142 -90 -142q-160 0 78 2h54q55 0 113 -1q88 -1 107 -3q6 -1 23 -1q36 0 116 3 q120 4 232 9l111 5l-2 -90q1 -1 -229.5 -1.5t-461.5 -0.5h-231z" />
<glyph unicode="[" horiz-adv-x="507" d="M115 281q0 42 3.5 361.5t4.5 346.5q2 34 5.5 242.5t2.5 208.5q5 0 45 -4q264 6 293 6l-10 -82q0 1 -46.5 2t-102.5 1t-105 -1q-5 -304 -2 -356q1 -19 -3 -187t-8 -334.5t-4 -171.5v-239q271 0 271 4l10 -82h-21q-20 1 -52 1.5t-68.5 1t-75 1t-64.5 0.5h-2h-5.5h-8.5 t-9.5 -0.5t-10.5 -0.5h-10.5h-10h-8t-5.5 1h-1q1 16 0.5 65.5t-1.5 126.5t-1 89z" />
<glyph unicode="\" horiz-adv-x="927" d="M47 1434q6 0 14.5 0.5t31.5 1.5t31.5 0.5t14.5 -0.5q0 -1 73.5 -181.5t151.5 -373t87 -215.5q12 -30 211.5 -344t201.5 -320q-4 -2 -28 -3t-46 -1h-22q-364 551 -389 635q-11 37 -94 237.5t-161 381.5z" />
<glyph unicode="]" horiz-adv-x="569" d="M117 -4l10 82q0 -4 270 -4v239q0 5 -4 171.5t-7.5 334.5t-2.5 187q0 130 -4 356q-48 1 -104 1t-102 -1t-46 -2l-10 82q23 0 293 -6l45 4q-1 0 2.5 -208.5t5.5 -242.5q1 -27 4.5 -346.5t3.5 -361.5q0 -12 -1 -89t-1.5 -126.5t0.5 -65.5q1 -1 -17 -1t-36 1h-19z" />
<glyph unicode="`" horiz-adv-x="471" d="M39 1731q1 -1 20 13t37 28l19 14q33 -76 84 -111q28 -19 83 -45t97 -42.5t47 -16.5q-5 -4 -14 -36l-9 -32q-1 -1 -57.5 18.5t-124.5 47.5t-92 45q-49 34 -87 110z" />
<glyph unicode="a" d="M49 573q13 83 61 142.5t114.5 88.5t144 46t152.5 22t136.5 9t100 14.5t39.5 32.5q1 30 8 76t9 76l2 28q0 18 -2 37q-3 35 -21 62.5t-52 49.5t-104 35t-145 16q-64 3 -126 3q-10 -1 -20 -1q-71 0 -116.5 -2t-45.5 -1q-2 1 0.5 12t6 27.5t4.5 25.5q-1 4 50.5 7.5t131.5 3.5 t165.5 -5.5t165 -23t117.5 -45.5q54 -38 74 -120q16 -64 16 -126q1 -17 -1 -33q-6 -77 -17 -187q-10 -101 -10 -152v-9q0 -86 8.5 -250.5t17.5 -286.5l9 -122q-82 2 -82 6l-13 172q-9 -6 -25 -17t-63.5 -37.5t-92 -46.5t-102.5 -36q-51 -14 -93 -13h-11q-53 0 -109 14.5 t-115 53t-101.5 95t-62.5 150.5q-11 51 -11 107q0 49 8 102zM128 476v-16q0 -44 9 -80q11 -42 32 -81.5t44 -67t49 -49.5q46 -40 120 -49q26 -3 53 -3q47 0 93 10q72 16 137 40.5t106.5 49.5t45.5 36q3 7 3 40q0 39 -4 115q-7 140 -17 273.5t-11 130.5q3 -3 -102 -23 q-37 -7 -108 -20q-13 -2 -48.5 -4.5t-65.5 -6t-71 -10.5t-75.5 -20t-68.5 -32.5t-59.5 -51t-39.5 -71.5q-20 -56 -22 -110z" />
<glyph unicode="b" horiz-adv-x="1083" d="M123 281q0 42 3.5 361.5t4.5 346.5q1 31 3 361q1 198 1 278v53q-1 0 18 -1t39 -2l19 -1q-2 -315 -2 -512q26 15 60.5 32.5t98.5 42.5t125 39q59 14 129 13h4q72 0 130 -24q276 -114 276 -591q0 -35 -2 -73q-6 -158 -38.5 -277.5t-75 -186.5t-104.5 -107t-110 -53 q-40 -11 -89 -11q-10 1 -20 1q-62 2 -85 7.5t-54 14.5q-7 2 -8 2q-102 20 -249 151v-145h-2h-5.5h-8.5t-10 -0.5t-11 -0.5h-10.5h-10h-8t-5.5 1h-1q1 11 1 36v30q0 50 -1.5 126.5t-1.5 88.5zM197 262q14 -22 30.5 -43.5t49.5 -52.5t70 -53.5t91.5 -39t114.5 -16.5 q67 0 121 15.5t92 42t67 68.5t47 87.5t30 108t17.5 120t8.5 132.5q2 32 2 62q0 90 -14 164q-18 99 -48.5 159t-77 101t-85.5 58t-87 24q-42 6 -64 6h-6q-21 -1 -44 -3q-35 -4 -141.5 -48.5t-161.5 -72.5q0 -15 0.5 -32.5t1 -29t0.5 -13.5v-16q-1 -41 -3 -171 q-4 -168 -7.5 -334.5t-3.5 -171.5v-51z" />
<glyph unicode="c" horiz-adv-x="774" d="M51 702q0 167 64 347q29 84 81 151.5t113.5 110t133.5 71.5t138.5 40.5t131.5 11.5l4 -86q-141 -16 -213 -37q-167 -49 -250 -156q-113 -146 -113 -455q0 -156 71 -324.5t130 -225.5q44 -42 184.5 -68.5t227.5 -26.5v-78q-38 0 -58.5 0.5t-62 2.5t-68 6t-67.5 13 t-70.5 21t-67 31.5t-66.5 44t-59 58.5t-55 75q-129 213 -129 473z" />
<glyph unicode="d" horiz-adv-x="1083" d="M53 670q6 158 38.5 277.5t75 186.5t104.5 107q61 40 109 53q40 11 90 11q10 -1 20 -1q62 -2 85 -7.5t54 -14.5q7 -2 8 -2q104 -22 235 -141v538q2 0 6 0.5t14 1t19 0.5t18 0.5t14 0.5l5 1v-53v-278q2 -330 4 -361q1 -27 5 -348t4 -360q0 -13 -1 -89t-2 -126 q0 -25 -0.5 -41.5t0.5 -24.5q1 -1 -17 -1t-36 1h-18v113l-2 2q-7 -4 -19.5 -11t-51.5 -26.5t-78 -35.5t-94 -32q-56 -17 -106 -24q-32 -4 -66 -4q-20 0 -40 1q-56 4 -102 23q-277 115 -277 591q0 36 2 73zM147 643q-2 -32 -2 -62q0 -90 14 -164q18 -99 48.5 -159t77 -101 t85.5 -58q40 -17 88 -24q42 -6 63 -6h6q21 1 44 3q38 4 168 59.5t148 67.5v114q0 5 -4 171.5t-8 334.5q-3 134 -3 173v14v24q-21 31 -48.5 59t-70 59t-100.5 50t-123 19q-67 0 -121 -15.5t-92 -42t-67 -68.5t-47 -87.5t-30 -108t-17.5 -120t-8.5 -132.5z" />
<glyph unicode="e" horiz-adv-x="1097" d="M51 702q0 141 64 347q53 173 176 278t276 105q164 0 288.5 -123.5t186.5 -329.5q6 -18 10 -36.5t6.5 -40t4 -36.5t2 -41.5t0.5 -38.5v-43v-41q-35 -2 -89 -4q-54 -1 -202 -4q-56 -1 -100 -1q-74 0 -117 3q-18 1 -37 1q-149 0 -377 -42q8 -147 64.5 -280.5t109.5 -184.5 q43 -41 71 -65q29 -25 74 -47q43 -22 82 -21h3q58 2 106.5 23t83 50t68 57.5t77 49.5t93.5 23q-1 -6 -1 -28t1 -46t2 -24q-39 -1 -71.5 -18.5t-61 -42.5t-63 -51t-96 -47.5t-142.5 -27.5q-12 -1 -24 -1q-47 0 -87 13q-52 16 -96 53t-80 81t-76 108q-129 205 -129 473z M141 733l54 17q21 7 149 17q98 8 152 8q16 0 28 -1q18 -1 65 -1q35 1 87 1q122 2 206 2q36 1 61 1q32 0 44 -1q-13 136 -64.5 258t-97.5 178q-112 134 -254 134q-190 0 -317 -191q-106 -157 -113 -422z" />
<glyph unicode="f" horiz-adv-x="659" d="M61 965q49 32 117 36v136l2 98q1 6 2.5 15.5t8.5 37t16.5 52.5t28.5 56t42.5 53t59.5 37t78 15q37 0 72.5 -9t59.5 -21.5t43.5 -25t28.5 -21.5l9 -9l-47 -63q-1 3 -7 10t-20 19t-32.5 22t-47.5 17.5t-61 6.5q-36 -1 -66.5 -23.5t-48.5 -54.5t-29.5 -64.5t-15.5 -55 t-2 -23.5v-37q0 -84 2 -178q6 0 14 -4q44 -15 94 -15h6q53 1 89 15q20 8 35 18.5t20 17.5l6 7l51 -59q-2 -2 -6 -5t-16.5 -12.5t-26.5 -17t-35.5 -17.5t-42.5 -14.5t-49 -8t-55 2.5q-51 6 -82 12q8 -386 8 -450q-2 -33 -6 -273q-2 -186 -2 -227v-12q1 0 -18 1l-38 2l-20 1 l4 491q-1 16 -6 486h-16q-29 -2 -86 -47z" />
<glyph unicode="g" horiz-adv-x="1067" d="M53 1004q1 80 51.5 161.5t124 140.5t161.5 96q80 32 150 32h15q120 -7 199 -52t112 -102l2 160q-1 0 18 -1l38 -2l20 -1l-4 -430v-16q0 -40 -2 -171q-4 -168 -8 -334.5t-4 -171.5v-63q-7 -115 -102 -196q-94 -79 -276 -79h-5q-56 0 -106 12.5t-87.5 33.5t-70.5 48.5 t-56.5 57t-42 59.5t-30.5 57t-20 47.5t-12 33.5l-3 12q-1 0 24 1.5l50 3t24 1.5t3.5 -16t16 -42t28.5 -57t44.5 -61.5t61.5 -56t83 -40.5q45 -14 96 -14h7q69 2 124.5 21t86 44t51 55.5t27.5 48t10 28.5v2v27q0 167 2 327q-104 -100 -295 -100h-18q-90 2 -170 33 t-137.5 81.5t-99.5 114t-62 131.5q-19 66 -19 130v6zM152 1004q-2 -16 -2 -32q0 -29 6 -60q8 -50 36 -105.5t71.5 -101t117 -76.5t164.5 -33h19q77 0 135 14q65 17 94 42.5t45 51t17 44.5l1 18q0 191 4 223q0 4 0.5 22t1 46t0.5 55q-9 30 -19 54.5t-33.5 58.5t-53.5 57.5 t-80.5 41t-112.5 19.5h-9q-74 0 -146 -32q-75 -34 -128 -86.5t-87.5 -111.5t-40.5 -109z" />
<glyph unicode="h" horiz-adv-x="968" d="M123 281q0 42 3.5 361.5t4.5 346.5q3 35 7 287q4 207 3 244v8q-1 0 18 -1t39 -2l19 -1l-5 -518q0 -56 -3 -115q94 151 305 151h6q72 -1 129.5 -20.5t92.5 -49.5t60.5 -67t37 -73t17.5 -66t7 -49v-19h-2v-8q0 -39 -6 -197q-8 -179 -8 -180v-313h-2h-5.5h-8.5t-10 -0.5 t-11 -0.5h-10.5h-10h-8t-4.5 1h-2q1 11 1 36q-1 14 -1 30q0 50 -1 126.5t-1 88.5q0 211 8 399q-1 0 0.5 8.5t-1.5 24t-5 34.5t-11 41t-20 43.5t-31 41t-44 35t-60 24.5t-78 10h-8q-62 0 -114 -16q-56 -16 -89 -38.5t-59 -53t-37 -52.5t-18 -43q-2 -82 -4.5 -187.5t-4 -169.5 t-1.5 -69v-313h-2h-5.5h-8.5t-10 -0.5t-11 -0.5h-10.5h-10h-8t-5.5 1h-1q1 11 1 36v30q0 50 -1.5 126.5t-1.5 88.5z" />
<glyph unicode="i" horiz-adv-x="337" d="M123 281q0 42 3.5 361.5t4.5 346.5q1 35 5 243q3 162 3 198v10q-1 0 18 -1t39 -2l19 -1l-4 -430v-16q-1 -41 -3 -171q-4 -168 -7.5 -334.5t-3.5 -171.5v-313h-2h-5.5h-8.5t-10 -0.5t-11 -0.5h-10.5h-10h-8t-5.5 1h-1q1 11 1 36v30q0 50 -1.5 126.5t-1.5 88.5z" />
<glyph unicode="j" horiz-adv-x="382" d="M-307 -139l61 22q4 -9 11.5 -23.5t33.5 -52t54.5 -68t72 -58.5t88.5 -35q33 -5 59 2t42.5 20t28 38t17 44t8 51t3 46.5t0.5 41.5v111h-2q1 11 1 36q0 13 -1 30q0 49 -1 126t-1 89q0 42 3.5 361.5t4.5 346.5q2 34 6 243q2 162 2 198v10q-1 0 18 -1l38 -2l20 -1l-4 -430 v-16q0 -40 -2 -171q-4 -168 -8 -334.5t-4 -171.5v-313q0 -223 -11 -268q-5 -19 -18.5 -42.5t-35.5 -51t-55 -45t-72 -23.5q-10 -1 -20 -1q-32 0 -72 13q-52 19 -108 64q-50 40 -89.5 94t-53.5 88z" />
<glyph unicode="k" horiz-adv-x="960" d="M123 281q0 42 3.5 361.5t4.5 346.5q1 35 5 243q3 162 3 198v10q-1 0 18 -1t39 -2l19 -1l-4 -430q0 -71 -8 -443q41 19 97.5 50.5t80.5 50.5q20 16 139.5 159.5t229.5 278.5l110 135q2 -2 6 -4.5t14.5 -9t19.5 -12.5t18.5 -12.5t14.5 -9.5l5 -3q-1 0 -37.5 -43.5 t-109.5 -131t-123 -147.5l2 -6q6 -28 16.5 -75t42 -173t62 -230t70 -209t71.5 -148l-101 -27q-13 27 -26 59.5t-21 55t-22 72t-18.5 67t-22 85.5t-21.5 85l-96 371q-154 -177 -168 -187q-44 -35 -235 -133q-1 -38 -2 -77t-1.5 -59t-0.5 -22v-313h-2h-5.5h-8.5t-10 -0.5 t-11 -0.5h-10.5h-10h-8t-5.5 1h-1q1 11 1 36v30q0 50 -1.5 126.5t-1.5 88.5z" />
<glyph unicode="l" horiz-adv-x="557" d="M123 281q0 42 3.5 361.5t4.5 346.5q1 35 5 243q3 162 3 198v10q-1 0 18 -1t39 -2l19 -1l-4 -430v-16q-1 -41 -3 -171q-4 -168 -7.5 -334.5t-2.5 -171.5v-227q94 -3 140 -3q28 0 39 1q9 1 40 1q15 -1 37 -1q62 0 106.5 -0.5t55.5 0.5q1 1 3.5 -20.5t4.5 -43.5l3 -22 l-429 2h-8q-2 0 -20.5 -0.5t-32 -0.5t-12.5 1q1 11 1 36v30q0 50 -1.5 126.5t-1.5 88.5z" />
<glyph unicode="m" horiz-adv-x="1607" d="M123 281q0 42 3.5 361.5t4.5 346.5q1 35 5 243q3 162 3 198v10q-1 0 18 -1t39 -2l19 -1q-2 -66 -2 -146q92 148 301 148h6q66 -1 119.5 -17.5t90 -44.5t60 -58.5t39.5 -66.5q10 22 22 41.5t39.5 48t61.5 49t88 34.5q51 14 111 14h8q72 -1 129.5 -20.5t92.5 -49.5 t60.5 -67t37 -73t17.5 -66t6 -49l1 -19h-2l-1 -10v-20v-27.5t1 -30.5v-16q-1 -41 -3 -171q-4 -168 -7.5 -334.5t-3.5 -171.5v-313h-2h-5.5h-8.5t-10 -0.5t-11 -0.5h-10.5h-10h-8t-5.5 1h-1q1 11 1 36v30q0 50 -1.5 126.5t-1.5 88.5q0 42 3.5 361.5t4.5 346.5q2 34 2 55.5 t-2 30.5q-1 0 0.5 8.5t-1.5 24t-5 34.5t-11 41t-20 43.5t-31 41t-44 35t-60 24.5t-78 10h-5q-223 0 -310 -174l8 -69h-2v-88v-16q0 -41 -2 -171q-4 -168 -8 -334.5t-4 -171.5v-313h-2h-5.5h-8.5t-10 -0.5t-11 -0.5h-10.5h-10h-8t-4.5 1h-2q1 11 1 36q-1 14 -1 30 q0 50 -1 126.5t-1 88.5q0 42 3.5 361.5t4.5 346.5q2 34 2 55.5t-2 30.5q-1 0 0.5 8.5t-1.5 24t-5 34.5t-11 41t-20 43.5t-31 41t-44 35t-60 24.5t-78 10h-8q-57 1 -107 -13q-53 -14 -86 -34.5t-59.5 -49t-39 -49.5t-21.5 -44q-2 -58 -1.5 -93.5t1.5 -47.5v-16 q-1 -41 -3 -171q-4 -168 -7.5 -334.5t-3.5 -171.5v-313h-2h-5.5h-8.5t-10 -0.5t-11 -0.5h-10.5h-10h-8t-5.5 1h-1q1 11 1 36v30q0 50 -1.5 126.5t-1.5 88.5z" />
<glyph unicode="n" horiz-adv-x="1007" d="M123 281q0 42 3.5 361.5t4.5 346.5q1 35 5 243q3 162 3 198v10q-1 0 18 -1t39 -2l19 -1q-2 -72 -4 -156q103 158 324 158h6q72 -1 131 -20.5t95.5 -49.5t64 -67t41 -73t21.5 -66t10 -49l1 -19h-2v-88v-16q-1 -41 -3 -171q-4 -168 -7.5 -334.5t-3.5 -171.5v-313h-2h-5.5 h-8.5t-10 -0.5t-11 -0.5h-10.5h-10h-8t-5.5 1h-1q1 11 1 36v30q0 50 -1.5 126.5t-1.5 88.5q0 42 3.5 361.5t4.5 346.5q2 34 2 55.5t-2 30.5q0 5 -1 14.5t-6.5 36.5t-15.5 51.5t-30.5 54.5t-47.5 52t-71 37t-98 16h-8q-59 0 -111 -14q-55 -15 -91 -36.5t-65 -50t-43 -51 t-24 -44.5q-2 -55 -2 -89t2 -46v-16q-1 -41 -3 -171q-4 -168 -7.5 -334.5t-3.5 -171.5v-313h-2h-5.5h-8.5t-10 -0.5t-11 -0.5h-10.5h-10h-8t-5.5 1h-1q1 11 1 36v30q0 50 -1.5 126.5t-1.5 88.5z" />
<glyph unicode="o" horiz-adv-x="1175" d="M51 702q0 141 64 347q52 170 185 276.5t288 106.5q166 0 300 -125t195 -328q41 -131 41 -277q0 -117 -34 -249t-72 -185q-99 -139 -203 -216t-227 -77q-121 0 -227 67.5t-181 186.5q-129 205 -129 473zM141 700q0 -156 71 -324.5t130 -225.5q48 -45 115 -69t135 -24 q122 0 225.5 86t164 234t60.5 323q0 141 -58.5 291t-117.5 221q-54 64 -125.5 99t-148.5 35q-97 0 -187 -50t-151 -141q-113 -169 -113 -455z" />
<glyph unicode="p" horiz-adv-x="1005" d="M123 281q0 42 3.5 361.5t4.5 346.5q2 34 5 243q3 162 3 198v10q-1 0 18 -1t39 -2l19 -1q-2 -35 -2 -78q91 106 326 106q141 -1 240.5 -58.5t147.5 -157.5q46 -97 46 -223v-11q-3 -175 -136 -274t-372 -99q-174 0 -258 84q-2 -80 -4.5 -182t-4 -164t-1.5 -66v-313h-2h-5.5 h-8.5t-10 -0.5t-11 -0.5h-10.5h-10h-8t-5.5 1h-1q1 11 1 36v30q-1 49 -2 126t-1 89zM209 846q13 -34 47.5 -60.5t77.5 -40t74.5 -20t56.5 -8.5h8q16 0 41 3q33 3 82 12t97.5 31t91.5 53t70.5 83t27.5 117v8q0 74 -18 134q-19 62 -51 103t-77.5 68.5t-94 39.5t-105.5 15 q-14 1 -27 1q-109 0 -186 -45q-86 -49 -113 -123v-211q0 -76 -2 -160z" />
<glyph unicode="q" horiz-adv-x="1175" d="M51 702q0 141 64 347q52 170 185 276.5t288 106.5q166 0 300 -125t195 -328q41 -131 41 -277q0 -117 -34 -249t-72 -185q-94 -132 -182 -200q90 -209 94 -209q5 0 -21 -15l-67 -37q4 4 -76 216q-91 -48 -178 -48q-121 0 -227 67.5t-181 186.5q-129 205 -129 473zM141 700 q0 -156 71 -324.5t130 -225.5q48 -45 115 -69t135 -24q77 0 145 35q-45 113 -51 119q-10 6 41 25l35 12q20 -50 45 -113q107 84 171 234t64 331q0 141 -58.5 291t-117.5 221q-54 64 -125.5 99t-148.5 35q-97 0 -187 -50t-151 -141q-113 -169 -113 -455z" />
<glyph unicode="r" horiz-adv-x="1028" d="M123 281q0 73 4 471h-2l2 16q0 193 4 221q1 27 4.5 206.5t3.5 221.5q-4 19 -2 21h2v2q2 -2 6 -2q21 3 50.5 5t86.5 4q28 1 56 1q30 -1 58 -1q56 -2 125.5 -11t130.5 -24t120 -43.5t101.5 -66t68.5 -94.5t27 -127v-6q1 -79 -25 -141q-26 -64 -74.5 -103.5t-104.5 -63.5 t-124 -36q82 -197 152 -354q49 -114 83 -182.5t48.5 -89.5t35.5 -48.5t37 -54.5l-90 -6q-36 38 -71 96q-11 17 -117 259t-160 370q-49 -4 -97 -4q-42 0 -82 3q-86 7 -120 15l-53 6q-2 -82 -4.5 -188t-4 -170.5t-1.5 -69.5v-313h-2h-5.5h-8.5t-10 -0.5t-11 -0.5h-10.5h-10h-8 t-5.5 1h-1q1 11 1 36v30q0 50 -1.5 126.5t-1.5 88.5zM209 831q91 -15 181 -20q29 -2 57 -1q61 0 123 6q90 10 159 36t112.5 77.5t45.5 123.5v6q-1 73 -25 125q-26 54 -79 88t-115 54t-150 34q-122 18 -220 18q-45 0 -85 -4q-4 -185 -4 -280q0 -64 2 -88q0 -85 -2 -175z" />
<glyph unicode="s" horiz-adv-x="921" d="M43 1149q-1 10 -1 20q0 65 24 118q27 61 70.5 97t98.5 59t102 31q42 7 78 8q5 0 9 -1q53 -2 162.5 -14t192.5 -23l83 -12q0 -1 -1 -3.5t-3 -9.5t-3.5 -13.5t-4 -15t-4.5 -15.5t-3.5 -13t-2.5 -9v-3q1 1 -39 10t-103 18q-62 8 -138 16q-41 4 -82 5q-35 1 -71 -3 q-76 -6 -138 -26q-61 -19 -99 -65q-35 -43 -36 -105q0 -5 1 -10q2 -54 31 -107.5t76 -98.5t106.5 -91t124 -90t127.5 -89.5t118 -96t94 -103.5q40 -54 58 -118q11 -40 11 -81q0 -25 -4 -51q-11 -71 -45 -125t-81.5 -84.5t-106.5 -50.5q-58 -20 -120 -24q-46 -3 -92 -3 q-15 1 -31 1q-61 2 -115 9.5t-95.5 15t-66.5 13.5l-24 7q7 83 11 83l15 -4q16 -5 44.5 -12.5t65.5 -15.5t89.5 -16t106.5 -13q16 -2 32 -2q35 0 73 8q55 11 106.5 39.5t89.5 69t54 101.5q8 31 8 65q0 32 -7 65q-12 56 -72.5 121.5t-141.5 123t-173.5 124t-170 126.5 t-131 130t-56.5 133z" />
<glyph unicode="t" horiz-adv-x="571" d="M102 1497q2 0 6 0.5t14 1t19 0.5t18 0.5t14 0.5l5 1q-2 0 -2 -47.5t2 -142.5l357 14l2 -80l-357 -10q4 -228 6 -246q1 -27 5 -348t4 -360v-37q0 -2 -0.5 -24.5t9.5 -57t23.5 -67.5t42 -56.5t64.5 -24.5q33 -1 62.5 6t47.5 17.5t31.5 21t18.5 17.5l6 8l51 -49 q-3 -3 -9.5 -9t-27.5 -21t-44.5 -26t-59 -20.5t-72.5 -9.5q-58 0 -101.5 27.5t-64 66.5t-33 78t-14.5 67l-2 27q-2 78 -2 98q0 5 -4 171.5t-8 334.5q-3 134 -3 173v14z" />
<glyph unicode="u" horiz-adv-x="1067" d="M109 1006q6 78 25.5 187.5t35.5 180.5l16 70q2 0 6 0.5t14 1t19 0.5t18 0.5t14 1.5h5q-1 0 -16 -79t-33.5 -193t-24.5 -187q-8 -89 -9 -191v-49q0 -70 2 -119q3 -65 8 -146.5t6 -92.5v-2q-1 -4 0 -20.5t8.5 -45t19.5 -59.5t36.5 -64t56.5 -59.5t83 -44.5t113 -20h16 q70 0 128 24q64 28 101 65.5t63.5 87.5t35 78t12.5 50q-12 515 -12 607v18l-4 430q2 0 6 0.5t14 1t19 0.5t18 0.5t14 1.5h5v-10q0 -36 2 -198q4 -208 6 -243q2 -32 8 -602v-106q0 -12 -1 -89q-1 -76 -1 -126q0 -16 -1 -30q0 -26 1 -36q1 -1 -17 -1t-37 1h-18v188 q-114 -184 -339 -184h-19q-76 3 -138.5 24.5t-102 52t-69.5 70.5t-45 75.5t-23.5 72.5t-10.5 55t-2 29q-17 206 -17 404q0 111 5 219z" />
<glyph unicode="v" d="M20 1434h14q8 1 32 2q16 1 25 1q3 -1 7 -1h15q0 -2 37.5 -182t79.5 -372t51 -216q12 -34 219 -537l418 1305l86 -7l-453 -1425q-4 -2 -28 -3t-46 -1h-22q-221 551 -246 635q-11 37 -58.5 237.5t-88.5 381.5z" />
<glyph unicode="w" horiz-adv-x="1607" d="M104 311v19h2v88v14q0 39 3 173q4 168 8 334t4 171v313h2h5.5h8.5t10 0.5t11 0.5h10.5h10h8h5.5l1 -1q-1 -11 -1 -36v-29q0 -50 1.5 -126.5t1.5 -88.5q0 -39 -4 -360.5t-5 -348.5q-2 -37 -2 -86h2q1 0 -0.5 -8.5t1.5 -24t5 -34.5t11 -41t20 -43.5t31 -41t44 -35t60 -24.5 t78 -10h8q66 0 120 16q58 16 94 45t57 56t35 57l-7 70h2v88v14q0 39 3 173q4 168 8 334t4 171v313h2h5.5h8.5t9.5 0.5t10.5 0.5h10.5h10h8h5.5l1 -1q0 -8 -1 -24q0 -15 1 -41q1 -50 2 -126t1 -89q0 -39 -4 -360.5t-5 -348.5q-2 -37 -2 -86h2q1 0 -0.5 -8.5t1.5 -24t5 -34.5 t11 -41t20 -43.5t31 -41t44 -35t60 -24.5t78 -10h9q57 0 106 12q53 14 86 34.5t59.5 48.5t39.5 50t22 45v142v16q1 41 3 171q4 168 7.5 334t3.5 171v313h2h5.5h8.5t10 0.5t11 0.5h10.5h10h8h5.5l1 -1q-1 -11 -1 -36v-29q0 -50 1.5 -126.5t1.5 -88.5q0 -42 -3.5 -362 t-4.5 -347q-2 -36 -6 -236q-3 -160 -3 -192v-8q1 0 -18 1l-38 2l-19 1q0 57 2 131q-87 -147 -302 -147h-6q-227 2 -311 186q-13 -29 -31.5 -55t-55.5 -59t-99 -53q-59 -19 -134 -19h-7q-72 1 -130 20.5t-93 49.5t-60.5 67t-37 73t-17.5 66t-7 49z" />
<glyph unicode="x" horiz-adv-x="1030" d="M20 1382q11 0 40.5 -9t76 -27t100 -53.5t105.5 -81.5t98.5 -117.5t73.5 -155.5q32 100 92.5 181.5t122.5 128.5t125.5 79t102.5 43.5t53 11.5q0 -5 -0.5 -27t-1 -42t-0.5 -21l-4 -1q-21 -4 -40.5 -8.5t-67.5 -23.5t-87.5 -43t-88 -70t-82 -102t-57 -140.5t-24.5 -184.5 v-11q0 -77 13 -146q14 -74 38 -129t55 -102t65.5 -79.5t69.5 -58.5t66.5 -41t55.5 -25.5t38 -14.5l15 -3q-2 -50 -2 -64q-25 0 -65.5 10.5t-97 39.5t-110 71.5t-104.5 115.5t-80 162q-28 -89 -79 -162t-104.5 -115.5t-110 -71.5t-96.5 -39.5t-65 -10.5l-2 64q9 2 24 6.5 t58.5 24t83 46t87.5 76t82 109.5t58 151q23 87 23 188v9q-1 100 -24.5 184.5t-56.5 140.5t-82.5 102t-88 70t-87.5 43t-67 23.5t-40 8.5l-4 1q0 1 -0.5 21t-1.5 42t-1 27z" />
<glyph unicode="y" horiz-adv-x="868" d="M41 1169q0 13 1.5 78t3.5 126.5t3 60.5q4 -1 21.5 -0.5t38 0t20.5 -3.5v-4q-9 -84 -9 -159q0 -142 32 -249q54 -185 195 -185q9 0 18 1q232 16 313 149q-2 76 -5 196.5t-5 186.5v55v11q92 0 92 4q0 5 1 -98.5t2 -247.5t2 -294.5t1 -263.5t-2 -131q0 -2 -2 -26.5t-3.5 -41 t-7 -49t-13 -56.5t-21 -56.5t-30.5 -56.5t-43 -49.5t-57 -42t-73.5 -27.5t-91.5 -12h-13q-88 0 -156 25q-73 27 -111.5 66t-62.5 89t-31 86q-5 32 -5 59v8h86q0 -20 2.5 -38.5t10.5 -50t28 -57t51 -50.5t84 -40.5t121 -17.5h8q56 0 100 25q48 26 76 70t47 105.5t26 121.5 t9 127q1 30 1 56q0 32 -1 58q-3 48 -5.5 91t-2.5 49q0 45 -2 90q-76 -53 -176 -88q-70 -24 -144 -24q-32 0 -65 4q-65 9 -115.5 54t-76 99.5t-41 118t-19.5 98.5t-4 51z" />
<glyph unicode="z" horiz-adv-x="1032" d="M51 2v66q297 515 369 589q33 33 138 186.5t194.5 291.5t87.5 139l-10 -1q-10 -1 -27.5 -3t-40.5 -4.5t-52.5 -5t-61 -4.5t-68 -3.5t-70.5 -1.5h-34q-69 0 -147 3q-97 4 -153 8l-55 4v90q0 -1 54.5 -6.5t152.5 -10.5q81 -4 156 -4h30q96 1 205 7t170 12l61 6l2 -88 q-342 -521 -424 -619q-36 -43 -132 -187q-98 -144 -176 -266q-78 -121 -79 -120l31 1q32 0 81 -0.5l98 -1t91 -1t52 -0.5h17q88 0 198 18q120 20 193 41l73 21l-2 -90q2 -2 -62 -18t-183.5 -33t-233.5 -17z" />
<glyph unicode="|" horiz-adv-x="315" d="M115 281q0 42 3.5 361.5t4.5 346.5q2 34 5.5 242.5t2.5 208.5t18 -1t39 -2l19 -1l-4 -430q1 -19 -3 -187t-8 -334.5t-4 -171.5v-530h-2h-5.5h-8.5t-9.5 -0.5t-10.5 -0.5h-10.5h-10h-8h-5.5l-1 1q1 27 0.5 121.5t-1.5 231t-1 145.5z" />
<glyph unicode="&#xa1;" horiz-adv-x="333" d="M131 1075q0 -42 3.5 -361.5t4.5 -346.5q2 -34 5.5 -242.5t2.5 -208.5t18 1t39 2l19 1l-4 430q1 19 -1.5 194.5t-5.5 350t-3 178.5zM133 1354l84 4l-4 -189q-19 2 -38 2.5t-38 -0.5z" />
<glyph unicode="&#xa7;" horiz-adv-x="1705" />
<glyph unicode="&#xa8;" horiz-adv-x="559" d="M63 1522l3 94l94 -4l4 -90h-101zM371 1522l8 96l92 4v-100h-100z" />
<glyph unicode="&#xad;" horiz-adv-x="677" d="M31 735q19 1 165.5 -2.5t290.5 -7.5t150 -4l2 -74q-38 0 -307.5 3.5t-296.5 4.5z" />
<glyph unicode="&#xb4;" horiz-adv-x="677" d="M135 1571q4 0 46 16.5t97.5 42.5t83.5 45q23 16 44 43.5t30 47.5l10 20l76 -55l-22 -39q-34 -54 -68 -78q-24 -17 -92 -45t-124.5 -47.5t-57.5 -18.5q0 1 -10 33t-13 35z" />
<glyph unicode="&#xb8;" horiz-adv-x="1323" d="M516 -401q-1 0 5 18t12.5 36t7.5 19l19 -4q19 -3 45 -5t53 0t46 15t21 37q3 38 -31 52.5t-69 10.5l-35 -5l-41 49q27 201 29 201q84 0 84 -3l-25 -167q4 0 11 0.5t27 -1.5t38 -6t39 -14.5t35 -25.5t21.5 -40.5t2.5 -58.5q-6 -43 -38.5 -70t-66 -36t-83.5 -9.5t-66 1.5 t-39 6h-2z" />
<glyph unicode="&#xbf;" horiz-adv-x="761" d="M6 303q9 79 45 144.5t85.5 107.5t107.5 74.5t114 49.5t102 27.5t74 13.5l29 3q-24 324 -28 324l83 2l29 -375q-14 -7 -81.5 -21.5t-140.5 -37t-150 -58.5t-131 -100.5t-62 -149.5q-8 -87 5 -152.5t40.5 -104.5t71 -64t88 -34t100.5 -11q76 -3 156.5 12.5t122.5 32.5 l43 16q28 -78 30 -78q1 0 -17.5 -5.5t-52 -14t-74.5 -17.5t-92 -15.5t-97 -8.5q-58 -2 -107.5 2.5t-113.5 29.5t-105.5 69.5t-64.5 131.5t-9 207zM524 1327l84 -4l-4 -182q-3 2 -20 1.5t-36 -2.5l-20 -1z" />
<glyph unicode="&#xc0;" horiz-adv-x="989" d="M43 4q-1 -1 26 113.5t71.5 301t88.5 367.5q-15 3 -24 9q-30 11 -66.5 40.5t-58.5 53.5l-21 24l43 48q25 -31 97 -74q27 -17 49 -25q135 561 135 563t28.5 3t56.5 2h28l493 -1426q-82 -12 -84 -12q-1 0 -252 758q-90 -5 -153 0q-142 10 -191 18q-151 -646 -153 -651 l-47 -117zM264 1751q1 -1 20 13l38 28l18 14q33 -75 84 -110q29 -19 83.5 -45t96.5 -43t47 -17q-5 -4 -13 -35l-9 -32q-1 -1 -58 18.5t-125 47t-92 44.5q-49 34 -87 110zM328 844q16 -2 49 -2q82 -10 252 -23q-177 537 -180 537q-4 0 -121 -512z" />
<glyph unicode="&#xc1;" horiz-adv-x="946" d="M27 4q4 2 18.5 1t30.5 -3l16 -2q29 64 47 117q6 21 154 651q50 -8 190 -18q64 -5 154 0q251 -758 252 -758l84 12l-494 1426q-112 -1 -112 -5q0 -1 -17.5 -73t-53 -219.5t-65.5 -270.5q-23 8 -49 25q-32 19 -56 37.5t-32 27.5l-8 9l-43 -48q9 -10 23.5 -26.5t53 -48.5 t68.5 -43q9 -6 25 -9q-44 -181 -88.5 -367.5t-71.5 -301t-26 -113.5zM270 1587q4 0 46 17t98 43t84 45q23 16 44 43.5t30 46.5l10 20l75 -55l-22 -39q-34 -54 -68 -78q-24 -17 -92 -44.5t-124.5 -47t-57.5 -18.5q-1 0 -10 32t-13 35zM311 844q117 512 121 512q3 0 180 -537 q-170 13 -252 23q-33 0 -49 2z" />
<glyph unicode="&#xc2;" horiz-adv-x="946" d="M27 4q4 2 18.5 1t30.5 -3l16 -2q29 64 47 117q6 21 154 651q50 -8 190 -18q64 -5 154 0q251 -758 252 -758l84 12l-494 1426q-112 -1 -112 -5q0 -1 -17.5 -73t-53 -219.5t-65.5 -270.5q-23 8 -49 25q-32 19 -56 37.5t-32 27.5l-8 9l-43 -48q9 -10 23.5 -26.5t53 -48.5 t68.5 -43q9 -6 25 -9q-44 -181 -88.5 -367.5t-71.5 -301t-26 -113.5zM209 1595q12 5 76.5 45.5t123 79.5t58.5 41t68.5 -39.5t136.5 -83.5l69 -43l-61 -59l-217 139l-184 -127q-58 41 -70 47zM311 844q117 512 121 512q3 0 180 -537q-170 13 -252 23q-33 0 -49 2z" />
<glyph unicode="&#xc3;" horiz-adv-x="946" d="M27 4q4 2 18.5 1t30.5 -3l16 -2q29 64 47 117q6 21 154 651q50 -8 190 -18q64 -5 154 0q251 -758 252 -758l84 12l-494 1426q-112 -1 -112 -5q0 -1 -17.5 -73t-53 -219.5t-65.5 -270.5q-23 8 -49 25q-32 19 -56 37.5t-32 27.5l-8 9l-43 -48q9 -10 23.5 -26.5t53 -48.5 t68.5 -43q9 -6 25 -9q-44 -181 -88.5 -367.5t-71.5 -301t-26 -113.5zM215 1622l19 14q19 13 60 28.5t83 14.5q48 -1 81 -14t59 -29t48 -20q21 -4 62.5 10.5t72.5 31.5l31 17v-84q-12 -7 -31 -17.5t-64 -26t-73 -11.5q-25 3 -78.5 34t-105.5 32q-44 1 -84.5 -15t-58.5 -33 l-19 -16zM311 844q117 512 121 512q3 0 180 -537q-170 13 -252 23q-33 0 -49 2z" />
<glyph unicode="&#xc4;" horiz-adv-x="946" d="M27 4q4 2 18.5 1t30.5 -3l16 -2q29 64 47 117q6 21 154 651q50 -8 190 -18q64 -5 154 0q251 -758 252 -758l84 12l-494 1426q-112 -1 -112 -5q0 -1 -17.5 -73t-53 -219.5t-65.5 -270.5q-23 8 -49 25q-32 19 -56 37.5t-32 27.5l-8 9l-43 -48q9 -10 23.5 -26.5t53 -48.5 t68.5 -43q9 -6 25 -9q-44 -181 -88.5 -367.5t-71.5 -301t-26 -113.5zM227 1645l2 94l95 -4l4 -90h-101zM311 844q117 512 121 512q3 0 180 -537q-170 13 -252 23q-33 0 -49 2zM535 1645l8 96l92 4v-100h-100z" />
<glyph unicode="&#xc6;" horiz-adv-x="1548" d="M-100 2q-1 -1 55.5 96t153.5 262.5t194 329.5l-27 10q-30 11 -66.5 41t-57.5 54l-21 24l43 47q24 -30 96 -73q41 -24 74 -33q395 672 395 674q5 2 11 2v4q-1 0 18 -1l38 -2l19 -1h99q29 -2 221.5 -1.5t228.5 -0.5q26 -1 63.5 1t61 4t23.5 1l6 -80l-705 6q-5 -307 -2 -360 q0 -76 -6 -287q77 4 109 2q29 -2 165 -2.5t158 -1.5q24 -1 65 -1.5t65 -1t24 -1.5l2 -68l-588 4q-8 -328 -8 -336v-247q12 0 55.5 1.5t61.5 0.5q29 -2 221.5 -1.5t228.5 -0.5q26 -1 63.5 1t61 4t23.5 1l6 -80l-774 6v2h-19q1 16 0.5 65.5t-1.5 126.5t-1 89q0 200 2 374 q-89 -5 -164 0q-126 9 -188 19l-324 -539q-14 -21 -31.5 -55t-28.5 -58l-11 -24zM428 750q3 0 10.5 -1t10.5 -1q208 -22 288 -25q0 234 4 266q0 9 1.5 56t3 116t2.5 121q-105 -171 -320 -532z" />
<glyph unicode="&#xc7;" horiz-adv-x="868" d="M41 705q-5 217 108.5 412.5t282.5 258.5q101 37 210.5 51.5t168.5 12t59 -5.5l-4 -72q-5 -1 -26 0.5t-67.5 -2.5t-96 -10t-111.5 -22t-112 -40q-139 -65 -224 -215.5t-94 -365.5q-6 -140 65 -289t177.5 -245t202.5 -101q89 -4 162.5 10t102.5 30l29 17l19 -92 q-92 -41 -254 -47l-21 -137q4 0 11 0.5t27.5 -1.5t38 -6t39 -14.5t35.5 -25.5t21.5 -40.5t2.5 -58.5q-6 -43 -38.5 -70t-66 -36t-83.5 -9.5t-66 1.5t-39 6h-2q-1 0 4.5 18t12 36t7.5 19l19 -4q19 -3 45.5 -5t53 0t46 15t21.5 37q3 38 -31 52.5t-70 10.5l-35 -5l-41 49 q15 113 23 168q-119 14 -239 134t-195 282t-78 299z" />
<glyph unicode="&#xc8;" horiz-adv-x="866" d="M53 281q0 42 3.5 361.5t4.5 346.5q2 35 6 243t3 208t18 -1l38 -2l19 -1q12 0 33.5 0.5t37.5 0.5t28 -1q29 -2 221.5 -1.5t228.5 -0.5q26 -1 63.5 1t61 4t23.5 1l6 -80l-705 4q-5 -305 -2 -358q0 -76 -6 -287q77 4 109 2q29 -2 165 -2.5t158 -1.5q24 -1 65 -1.5t65 -1 t24 -1.5l2 -68l-588 4q-8 -328 -8 -336v-247q12 0 55.5 1.5t61.5 0.5q29 -2 221.5 -1.5t228.5 -0.5q26 -1 63.5 1t61 4t23.5 1l6 -80l-774 6v2h-19q1 16 0.5 65.5t-1.5 126.5t-1 89zM236 1741q1 -1 19.5 13t36.5 28l19 14q33 -75 84 -110q29 -19 84 -45t97 -43t47 -17 q-5 -4 -14 -36l-9 -32q-1 -1 -57.5 18.5t-124.5 47.5t-92 45q-49 34 -87 110z" />
<glyph unicode="&#xc9;" horiz-adv-x="866" d="M53 281q0 42 3.5 361.5t4.5 346.5q2 35 6 243t3 208t18 -1l38 -2l19 -1q12 0 33.5 0.5t37.5 0.5t28 -1q29 -2 221.5 -1.5t228.5 -0.5q26 -1 63.5 1t61 4t23.5 1l6 -80l-705 4q-5 -305 -2 -358q0 -76 -6 -287q77 4 109 2q29 -2 165 -2.5t158 -1.5q24 -1 65 -1.5t65 -1 t24 -1.5l2 -68l-588 4q-8 -328 -8 -336v-247q12 0 55.5 1.5t61.5 0.5q29 -2 221.5 -1.5t228.5 -0.5q26 -1 63.5 1t61 4t23.5 1l6 -80l-774 6v2h-19q1 16 0.5 65.5t-1.5 126.5t-1 89zM242 1632q4 0 46 17t97.5 43t83.5 45q23 16 44 43.5t31 47.5l9 19l76 -55l-22 -39 q-34 -54 -68 -78q-24 -17 -92 -44.5t-125 -47t-58 -18.5q0 1 -9 32t-13 35z" />
<glyph unicode="&#xca;" horiz-adv-x="866" d="M53 281q0 42 3.5 361.5t4.5 346.5q2 35 6 243t3 208t18 -1l38 -2l19 -1q12 0 33.5 0.5t37.5 0.5t28 -1q29 -2 221.5 -1.5t228.5 -0.5q26 -1 63.5 1t61 4t23.5 1l6 -80l-705 4q-5 -305 -2 -358q0 -76 -6 -287q77 4 109 2q29 -2 165 -2.5t158 -1.5q24 -1 65 -1.5t65 -1 t24 -1.5l2 -68l-588 4q-8 -328 -8 -336v-247q12 0 55.5 1.5t61.5 0.5q29 -2 221.5 -1.5t228.5 -0.5q26 -1 63.5 1t61 4t23.5 1l6 -80l-774 6v2h-19q1 16 0.5 65.5t-1.5 126.5t-1 89zM170 1595q12 5 76.5 45.5t123 79.5t58.5 41t68.5 -39.5t137.5 -83.5l68 -43l-61 -59 l-217 139l-184 -127q-58 41 -70 47z" />
<glyph unicode="&#xcb;" horiz-adv-x="866" d="M53 281q0 42 3.5 361.5t4.5 346.5q2 35 6 243t3 208t18 -1l38 -2l19 -1q12 0 33.5 0.5t37.5 0.5t28 -1q29 -2 221.5 -1.5t228.5 -0.5q26 -1 63.5 1t61 4t23.5 1l6 -80l-705 4q-5 -305 -2 -358q0 -76 -6 -287q77 4 109 2q29 -2 165 -2.5t158 -1.5q24 -1 65 -1.5t65 -1 t24 -1.5l2 -68l-588 4q-8 -328 -8 -336v-247q12 0 55.5 1.5t61.5 0.5q29 -2 221.5 -1.5t228.5 -0.5q26 -1 63.5 1t61 4t23.5 1l6 -80l-774 6v2h-19q1 16 0.5 65.5t-1.5 126.5t-1 89zM229 1624l2 94l95 -4l4 -90h-101zM537 1624l8 96l92 4v-100h-100z" />
<glyph unicode="&#xcc;" horiz-adv-x="434" d="M20 1745q1 -1 20 13l38 28l18 14q33 -75 84 -110q29 -19 84 -45t97 -43t47 -17q-5 -4 -14 -35l-9 -32q-1 -1 -57.5 18.5t-124.5 47t-92 44.5q-49 34 -88 110zM41 1382l2 60q-1 1 37 1t92 -0.5t108 -1.5t92 -2l38 -1q4 -70 6 -70q-6 0 -37 -2q-13 -2 -121 2 q-6 -307 -2 -362q1 -19 -2.5 -187t-7.5 -334.5t-4 -171.5v-245h174l2 -60q-12 -1 -32.5 -2t-74 -4.5t-96.5 -5.5t-83.5 -3.5t-51.5 -0.5q-20 2 -37 2l6 69q55 3 121 3q0 44 -1 126.5t-1 88.5q0 42 3.5 361.5t4.5 346.5q2 24 8 383z" />
<glyph unicode="&#xcd;" horiz-adv-x="434" d="M41 1382l2 60q-1 1 37 1t92 -0.5t108 -1.5t92 -2l38 -1q4 -70 6 -70q-6 0 -37 -2q-13 -2 -121 2q-6 -307 -2 -362q1 -19 -2.5 -187t-7.5 -334.5t-4 -171.5v-245h174l2 -60q-12 -1 -32.5 -2t-74 -4.5t-96.5 -5.5t-83.5 -3.5t-51.5 -0.5q-20 2 -37 2l6 69q55 3 121 3 q0 44 -1 126.5t-1 88.5q0 42 3.5 361.5t4.5 346.5q2 24 8 383zM59 1618q4 0 46 16.5t98 42.5t84 45q23 16 44 43.5t31 47.5l9 20l75 -55l-22 -39q-34 -54 -68 -78q-24 -17 -92 -45t-124.5 -47.5t-57.5 -18.5l-10 32q-10 32 -13 36z" />
<glyph unicode="&#xce;" horiz-adv-x="438" d="M-43 1595q17 7 135.5 85t118.5 81q0 2 68.5 -39.5t136.5 -83.5l69 -43l-61 -59l-217 139l-184 -127q-54 41 -66 47zM41 1382l2 60q-1 1 37 1t92 -0.5t108 -1.5t92 -2l38 -1q4 -70 6 -70q-6 0 -37 -2q-13 -2 -121 2q-6 -307 -2 -362q1 -19 -2.5 -187t-7.5 -334.5 t-4 -171.5v-245h174l2 -60q-12 -1 -32.5 -2t-74 -4.5t-96.5 -5.5t-83.5 -3.5t-51.5 -0.5q-20 2 -37 2l6 69q55 3 121 3q0 44 -1 126.5t-1 88.5q0 42 3.5 361.5t4.5 346.5q2 24 8 383z" />
<glyph unicode="&#xcf;" horiz-adv-x="434" d="M14 1563l2 94l95 -4l4 -90h-101zM41 1382l2 60q-1 1 37 1t92 -0.5t108 -1.5t92 -2l38 -1q4 -70 6 -70q-6 0 -37 -2q-13 -2 -121 2q-6 -307 -2 -362q1 -19 -2.5 -187t-7.5 -334.5t-4 -171.5v-245h174l2 -60q-12 -1 -32.5 -2t-74 -4.5t-96.5 -5.5t-83.5 -3.5t-51.5 -0.5 q-20 2 -37 2l6 69q55 3 121 3q0 44 -1 126.5t-1 88.5q0 42 3.5 361.5t4.5 346.5q2 24 8 383zM322 1563l8 96l92 4v-100h-100z" />
<glyph unicode="&#xd1;" horiz-adv-x="1038" d="M123 281q0 42 3.5 361.5t4.5 346.5q2 34 5.5 242.5t2.5 208.5t18 -1t39 -2l19 -1v-4l16 -2l611 -1258q4 430 4 576q0 34 -4.5 253t-7.5 240q-1 5 -1.5 15t-1 22.5t-1 27t-1 29.5t-1 29t-0.5 26.5t-0.5 22t-0.5 14.5v5q0 -1 21 1.5t42 5.5l21 3q-2 -152 2 -189 q2 -20 0 -1253q0 -1 -17.5 0t-35.5 2t-18 0l-629 1288q-4 -254 -2 -284q1 -19 -2.5 -187t-7.5 -334.5t-4 -171.5v-313h-2h-5.5h-8.5t-10 -0.5t-11 -0.5h-10.5h-10h-8t-5.5 1h-1q1 16 0.5 65.5t-1.5 126.5t-1 89zM260 1622l19 14q19 13 60 28.5t83 14.5q48 -1 81 -14t59 -29 t48 -20q21 -4 62.5 10.5t72.5 31.5l31 17v-84q-12 -7 -31 -17.5t-64 -26t-73 -11.5q-25 3 -78.5 34t-105.5 32q-44 1 -84.5 -15t-59.5 -33l-18 -16z" />
<glyph unicode="&#xd2;" horiz-adv-x="1214" d="M55 702q0 141 64 347q37 122 119 213q71 80 164 125t190 45q205 0 360 -189q46 40 82 53q55 20 106 29t75 9l24 -1v-88q-15 1 -39 0.5t-81 -13t-93 -36.5l-27 -20q51 -81 88 -197q41 -131 41 -277q0 -117 -34 -249t-72 -185q-99 -139 -203 -216t-227 -77 q-121 0 -227 67.5t-181 186.5q-129 205 -129 473zM145 700q0 -156 71 -324.5t130 -225.5q48 -45 115 -69t135 -24q122 0 226 86t164.5 234t60.5 323q0 194 -115 416q-53 -44 -100 -76t-117.5 -67.5t-152 -49.5t-167.5 -3q-163 18 -186 141q-64 -155 -64 -361zM238 1262 q10 -1 10 -11zM277.5 1120.5q-0.5 -20.5 9 -45.5t30.5 -42.5t64.5 -28.5t105.5 -9q68 2 128 19t111.5 48.5t85.5 57.5t77 66l-19 26q-54 64 -125.5 99t-148.5 35q-82 0 -159.5 -36t-137.5 -102q-2 -5 -5.5 -13t-9.5 -31t-6.5 -43.5zM410 1745q1 -1 19.5 13t36.5 28l19 14 q33 -75 84 -110q29 -19 84 -45t97 -43t47 -17q-5 -4 -14 -35l-9 -32q-1 -1 -57.5 18.5t-124.5 47t-92 44.5q-49 34 -87 110z" />
<glyph unicode="&#xd3;" horiz-adv-x="1214" d="M55 702q0 141 64 347q37 122 119 213q71 80 164 125t190 45q205 0 360 -189q46 40 82 53q55 20 106 29t75 9l24 -1v-88q-15 1 -39 0.5t-81 -13t-93 -36.5l-27 -20q51 -81 88 -197q41 -131 41 -277q0 -117 -34 -249t-72 -185q-99 -139 -203 -216t-227 -77 q-121 0 -227 67.5t-181 186.5q-129 205 -129 473zM145 700q0 -156 71 -324.5t130 -225.5q48 -45 115 -69t135 -24q122 0 226 86t164.5 234t60.5 323q0 194 -115 416q-53 -44 -100 -76t-117.5 -67.5t-152 -49.5t-167.5 -3q-163 18 -186 141q-64 -155 -64 -361zM238 1262 l10 -11q0 4 -2.5 7t-5.5 4h-2zM277.5 1120.5q-0.5 -20.5 9 -45.5t30.5 -42.5t64.5 -28.5t105.5 -9q68 2 128 19t111.5 48.5t85.5 57.5t77 66l-19 26q-54 64 -125.5 99t-148.5 35q-82 0 -159.5 -36t-137.5 -102q-2 -5 -5.5 -13t-9.5 -31t-6.5 -43.5zM416 1608q4 0 46 16.5 t97.5 42.5t83.5 45q23 16 44 43.5t31 47.5l9 20l76 -56l-22 -40q-33 -52 -68 -76q-24 -17 -92 -45t-125 -47.5t-58 -18.5l-9 32q-9 32 -13 36z" />
<glyph unicode="&#xd4;" horiz-adv-x="1183" d="M51 702q0 141 64 347q38 124 118 213q71 80 164 125t191 45q205 0 360 -189q46 40 82 53q55 20 106 29t75 9l24 -1v-88q-15 1 -39 0.5t-81 -13t-93 -36.5l-27 -20q51 -81 88 -197q41 -131 41 -277q0 -117 -34 -249t-72 -185q-99 -139 -203 -216t-227 -77 q-121 0 -227 67.5t-181 186.5q-129 205 -129 473zM141 700q0 -156 71 -324.5t130 -225.5q48 -45 115 -69t135 -24q122 0 225.5 86t164 234t60.5 323q0 196 -114 416q-53 -44 -100 -76t-117.5 -67.5t-152 -49.5t-167.5 -3q-163 18 -186 141q-64 -155 -64 -361zM233 1262 l11 -11q0 4 -3 7t-5 4h-3zM273.5 1120.5q-0.5 -20.5 9 -45.5t30.5 -42.5t64.5 -28.5t105.5 -9q68 2 128 19t111.5 48.5t85.5 57.5t77 66l-19 26q-54 64 -125.5 99t-148.5 35q-82 0 -159.5 -36t-137.5 -102q-2 -5 -5.5 -13t-9.5 -31t-6.5 -43.5zM326 1595q12 5 76.5 45.5 t123 79.5t58.5 41t68.5 -39.5t137.5 -83.5l68 -43l-61 -59l-217 139l-185 -127q-57 41 -69 47z" />
<glyph unicode="&#xd5;" horiz-adv-x="1183" d="M51 702q0 141 64 347q38 124 118 213q71 80 164 125t191 45q205 0 360 -189q46 40 82 53q55 20 106 29t75 9l24 -1v-88q-15 1 -39 0.5t-81 -13t-93 -36.5l-27 -20q51 -81 88 -197q41 -131 41 -277q0 -117 -34 -249t-72 -185q-99 -139 -203 -216t-227 -77 q-121 0 -227 67.5t-181 186.5q-129 205 -129 473zM141 700q0 -156 71 -324.5t130 -225.5q48 -45 115 -69t135 -24q122 0 225.5 86t164 234t60.5 323q0 196 -114 416q-53 -44 -100 -76t-117.5 -67.5t-152 -49.5t-167.5 -3q-163 18 -186 141q-64 -155 -64 -361zM233 1262 l11 -11q0 4 -3 7t-5 4h-3zM273.5 1120.5q-0.5 -20.5 9 -45.5t30.5 -42.5t64.5 -28.5t105.5 -9q68 2 128 19t111.5 48.5t85.5 57.5t77 66l-19 26q-54 64 -125.5 99t-148.5 35q-82 0 -159.5 -36t-137.5 -102q-2 -5 -5.5 -13t-9.5 -31t-6.5 -43.5zM334 1622l19 14 q19 13 60 28.5t83 14.5q48 -1 81 -14t59 -29t48 -20q21 -4 62.5 10.5t72.5 31.5l31 17v-84q-12 -7 -31 -17.5t-64 -26t-73 -11.5q-25 3 -78.5 34t-105.5 32q-44 1 -84.5 -15t-59.5 -33l-18 -16z" />
<glyph unicode="&#xd6;" horiz-adv-x="1214" d="M55 702q0 141 64 347q37 122 119 213q71 80 164 125t190 45q205 0 360 -189q46 40 82 53q55 20 106 29t75 9l24 -1v-88q-15 1 -39 0.5t-81 -13t-93 -36.5l-27 -20q51 -81 88 -197q41 -131 41 -277q0 -117 -34 -249t-72 -185q-99 -139 -203 -216t-227 -77 q-121 0 -227 67.5t-181 186.5q-129 205 -129 473zM145 700q0 -156 71 -324.5t130 -225.5q48 -45 115 -69t135 -24q122 0 226 86t164.5 234t60.5 323q0 194 -115 416q-53 -44 -100 -76t-117.5 -67.5t-152 -49.5t-167.5 -3q-163 18 -186 141q-64 -155 -64 -361zM238 1262 l10 -11q0 4 -2.5 7t-5.5 4h-2zM277.5 1120.5q-0.5 -20.5 9 -45.5t30.5 -42.5t64.5 -28.5t105.5 -9q68 2 128 19t111.5 48.5t85.5 57.5t77 66l-19 26q-54 64 -125.5 99t-148.5 35q-82 0 -159.5 -36t-137.5 -102q-2 -5 -5.5 -13t-9.5 -31t-6.5 -43.5zM403 1513l3 95l94 -4 l4 -91h-101zM711 1513l8 97l92 4v-101h-100z" />
<glyph unicode="&#xd7;" horiz-adv-x="548" d="M23 506q1 1 186 178q-151 154 -178 186l53 60q17 -15 182 -191l197 187l53 -52l-197 -190q37 -38 84 -88t71.5 -75.5t27.5 -28.5l-49 -56q-99 99 -189 193l-182 -176z" />
<glyph unicode="&#xd8;" horiz-adv-x="1183" d="M51 702q0 141 64 347q38 124 118 213q71 80 164 125t191 45q205 0 360 -189q46 40 82 53q55 20 106 29t75 9l24 -1v-88q-15 1 -39 0.5t-81 -13t-93 -36.5l-27 -20q51 -81 88 -197q41 -131 41 -277q0 -117 -34 -249t-72 -185q-99 -139 -203 -216t-227 -77q-141 0 -264 93 l-45 -70q-87 0 -97 4l76 125q-48 52 -78 102q-129 205 -129 473zM141 700q0 -133 50.5 -273t111.5 -230q271 415 293 469q14 39 156 325q-175 -95 -361 -71q-163 18 -186 141q-64 -155 -64 -361zM233 1262l11 -11q0 4 -3 7t-5 4h-3zM273.5 1120.5q-0.5 -20.5 9 -45.5 t30.5 -42.5t64.5 -28.5t105.5 -9q68 2 128 19t111.5 48.5t85.5 57.5t77 66l-19 26q-54 64 -125.5 99t-148.5 35q-82 0 -159.5 -36t-137.5 -102q-2 -5 -5.5 -13t-9.5 -31t-6.5 -43.5zM365 129q93 -72 227 -72q122 0 225.5 86t164 234t60.5 323q0 196 -114 416l-41 -33 q-200 -383 -219 -450q-23 -72 -303 -504z" />
<glyph unicode="&#xd9;" horiz-adv-x="1075" d="M139 1436q2 0 6 0.5t14 1t19 0.5t18 0.5t14 1.5h5q-1 0 2.5 -208.5t5.5 -242.5q7 -118 7.5 -347.5t-1.5 -268.5q2 -24 8.5 -54t28.5 -74t54 -79t91.5 -61.5t135.5 -28.5q80 -3 144.5 24.5t101 65t63 87.5t35 78t12.5 50q-14 589 -12 625l-4 430q2 0 6 0.5t14 1t19 0.5 t18 0.5t14 1.5h5q-1 0 2.5 -208.5t5.5 -242.5q2 -32 8 -602v-106q0 -12 -1 -89t-1.5 -126.5t0.5 -65.5q1 -1 -17 -1t-36 1h-19v188q-119 -192 -358 -184q-79 3 -143 26t-103.5 54.5t-69 74.5t-43 79t-22 73.5t-9.5 52.5t-1 23l-13 619zM340 1745q1 -1 20 13l38 28l18 14 q33 -75 84 -110q29 -19 83.5 -45t96.5 -43t47 -17q-5 -4 -13 -35l-9 -32q-1 -1 -58 18.5t-125 47t-92 44.5q-49 34 -87 110z" />
<glyph unicode="&#xda;" horiz-adv-x="1075" d="M139 1436l4 -430l13 -619q0 -8 1 -23t9.5 -52.5t22 -73.5t43 -79t69 -74.5t103.5 -54.5t143 -26q239 -8 358 184v-188h2h5.5h8.5t10 -0.5t11 -0.5h10.5h10h8t5.5 1h1q-1 16 -0.5 65.5t1.5 126.5t1 89q0 42 -3.5 361.5t-4.5 346.5q-2 34 -5.5 242.5t-2.5 208.5t-18 -1 t-39 -2l-19 -1l4 -430q-2 -36 12 -625q-4 -22 -12.5 -50t-35 -78t-63 -87.5t-101 -65t-144.5 -24.5q-76 2 -135.5 28.5t-91.5 61.5t-54 79t-28.5 74t-8.5 54q2 39 1.5 268.5t-7.5 347.5q-2 34 -5.5 242.5t-2.5 208.5t-18 -1t-39 -2zM346 1608q4 0 46 16.5t97.5 42.5t83.5 45 q23 16 44 43.5t31 47.5l9 20l76 -56l-22 -40q-33 -52 -68 -76q-24 -17 -92 -45t-124.5 -47.5t-57.5 -18.5l-9 32q-10 32 -14 36z" />
<glyph unicode="&#xdb;" horiz-adv-x="1064" d="M102 1436l4 -430l13 -619q0 -8 1 -23t9.5 -52.5t22 -73.5t43 -79t69 -74.5t103.5 -54.5t143 -26q239 -8 358 184v-188h2h5.5h8.5t10 -0.5t11 -0.5h10.5h10h8t4.5 1h2q-1 16 -0.5 65.5t1.5 126.5t1 89v106q-6 570 -8 602q-2 34 -5.5 242.5t-2.5 208.5t-18 -1l-38 -2 l-20 -1l4 -430q-2 -36 12 -625q-4 -22 -12.5 -50t-35 -78t-63 -87.5t-101 -65t-144.5 -24.5q-76 2 -135 28.5t-91.5 61.5t-54 79t-28 74t-8.5 54q2 39 1 268t-8 348q-2 34 -5.5 242.5t-2.5 208.5t-18 -1l-38 -2zM266 1595q12 5 76.5 45.5t123 79.5t58.5 41t69 -39.5 t137 -83.5l69 -43l-62 -59l-217 139l-184 -127q-58 41 -70 47z" />
<glyph unicode="&#xdc;" horiz-adv-x="1075" d="M139 1436l4 -430l13 -619q0 -8 1 -23t9.5 -52.5t22 -73.5t43 -79t69 -74.5t103.5 -54.5t143 -26q239 -8 358 184v-188h2h5.5h8.5t10 -0.5t11 -0.5h10.5h10h8t5.5 1h1q-1 16 -0.5 65.5t1.5 126.5t1 89v106q-6 570 -8 602q-2 34 -5.5 242.5t-2.5 208.5t-18 -1t-39 -2 l-19 -1l4 -430q-2 -36 12 -625q-4 -22 -12.5 -50t-35 -78t-63 -87.5t-101 -65t-144.5 -24.5q-76 2 -135.5 28.5t-91.5 61.5t-54 79t-28.5 74t-8.5 54q2 39 1.5 268.5t-7.5 347.5q-2 34 -5.5 242.5t-2.5 208.5t-18 -1t-39 -2zM334 1602l2 94l94 -4l4 -90h-100zM641 1602l8 96 l92 4v-100h-100z" />
<glyph unicode="&#xdd;" horiz-adv-x="946" d="M49 1430q0 -1 42 -80.5t86.5 -166t49.5 -100.5q11 -34 244 -436q-6 -119 -6 -360q0 -12 1 -89t1.5 -126.5t-0.5 -65.5q-1 -1 17 -1t36 1h19v313q0 23 2.5 87.5t6.5 150t5 127.5l61 141q8 20 141 313.5t134 293.5h-9q-9 1 -23 1.5t-28 1.5t-24 1.5t-10 1.5t-18.5 -44 t-38.5 -95.5t-25 -63.5l-209 -463l-211 379l-152 281q-1 1 -46.5 0.5t-45.5 -2.5zM283 1608q4 0 46 16.5t97.5 42.5t83.5 45q23 16 44 43.5t30 47.5l10 20l76 -56l-22 -40q-33 -52 -68 -76q-24 -17 -92 -45t-125 -47.5t-58 -18.5q-1 0 -10 32t-12 36z" />
<glyph unicode="&#xe0;" d="M49 573q13 83 61 142.5t114.5 88.5t144 46t152.5 22t136.5 9t100 14.5t39.5 32.5q1 30 8 76t9.5 76t-0.5 65t-21 62.5t-52 49.5t-104 35t-145 16t-146 2.5t-116.5 -2.5t-45.5 -1q-2 1 0.5 12t6 27.5t4.5 25.5q-1 4 50.5 7.5t131.5 3.5t165.5 -5.5t165 -23t117.5 -45.5 q54 -38 74 -120t14.5 -159t-16.5 -187t-10 -161q0 -86 8.5 -250.5t17.5 -286.5l9 -122q-82 2 -82 6l-13 172q-9 -6 -25 -17t-63.5 -37.5t-92 -46.5t-102.5 -35.5t-104 -13.5q-53 0 -109 14.5t-115 53t-101.5 95t-62.5 150t-3 209.5zM128 476.5q-2 -54.5 9 -97t32 -81.5 t44 -66.5t49 -49.5q47 -40 120.5 -49t145 7t137 40.5t107 49.5t45.5 36q6 15 -1 155t-17 273.5t-11 130.5q3 -3 -102 -23q-37 -7 -108 -20q-13 -2 -48.5 -4.5t-65.5 -6t-71 -10.5t-75.5 -20t-68.5 -32.5t-59.5 -51t-39.5 -71.5q-20 -55 -22 -109.5zM319 1731q1 -1 20 13 t37 28l19 14q33 -76 84 -111q28 -19 83.5 -45t97.5 -42.5t47 -16.5q-5 -4 -14 -36l-9 -32q-1 -1 -57.5 18.5t-124.5 47.5t-92 45q-49 34 -88 110z" />
<glyph unicode="&#xe1;" d="M49 573q13 83 61 142.5t114.5 88.5t144 46t152.5 22t136.5 9t100 14.5t39.5 32.5q1 30 8 76t9.5 76t-0.5 65t-21 62.5t-52 49.5t-104 35t-145 16t-146 2.5t-116.5 -2.5t-45.5 -1q-2 1 0.5 12t6 27.5t4.5 25.5q-1 4 50.5 7.5t131.5 3.5t165.5 -5.5t165 -23t117.5 -45.5 q54 -38 74 -120t14.5 -159t-16.5 -187t-10 -161q0 -86 8.5 -250.5t17.5 -286.5l9 -122q-82 2 -82 6l-13 172q-9 -6 -25 -17t-63.5 -37.5t-92 -46.5t-102.5 -35.5t-104 -13.5q-53 0 -109 14.5t-115 53t-101.5 95t-62.5 150t-3 209.5zM128 476.5q-2 -54.5 9 -97t32 -81.5 t44 -66.5t49 -49.5q47 -40 120.5 -49t145 7t137 40.5t107 49.5t45.5 36q6 15 -1 155t-17 273.5t-11 130.5q3 -3 -102 -23q-37 -7 -108 -20q-13 -2 -48.5 -4.5t-65.5 -6t-71 -10.5t-75.5 -20t-68.5 -32.5t-59.5 -51t-39.5 -71.5q-20 -55 -22 -109.5zM324 1571q4 0 46 16.5 t97.5 42.5t83.5 45q23 16 44 43.5t31 47.5l9 20l76 -55l-22 -39q-34 -54 -68 -78q-24 -17 -92 -45t-125 -47.5t-58 -18.5q0 1 -9 33t-13 35z" />
<glyph unicode="&#xe2;" d="M49 573q13 83 61 142.5t114.5 88.5t144 46t152.5 22t136.5 9t100 14.5t39.5 32.5q1 30 8 76t9.5 76t-0.5 65t-21 62.5t-52 49.5t-104 35t-145 16t-146 2.5t-116.5 -2.5t-45.5 -1q-2 1 0.5 12t6 27.5t4.5 25.5q-1 4 50.5 7.5t131.5 3.5t165.5 -5.5t165 -23t117.5 -45.5 q54 -38 74 -120t14.5 -159t-16.5 -187t-10 -161q0 -86 8.5 -250.5t17.5 -286.5l9 -122q-82 2 -82 6l-13 172q-9 -6 -25 -17t-63.5 -37.5t-92 -46.5t-102.5 -35.5t-104 -13.5q-53 0 -109 14.5t-115 53t-101.5 95t-62.5 150t-3 209.5zM128 476.5q-2 -54.5 9 -97t32 -81.5 t44 -66.5t49 -49.5q47 -40 120.5 -49t145 7t137 40.5t107 49.5t45.5 36q6 15 -1 155t-17 273.5t-11 130.5q3 -3 -102 -23q-37 -7 -108 -20q-13 -2 -48.5 -4.5t-65.5 -6t-71 -10.5t-75.5 -20t-68.5 -32.5t-59.5 -51t-39.5 -71.5q-20 -55 -22 -109.5zM248 1583q12 5 76.5 45.5 t123 79.5t58.5 41t68.5 -39.5t137.5 -83.5l68 -43l-61 -59l-217 139l-185 -127q-57 41 -69 47z" />
<glyph unicode="&#xe3;" d="M49 573q13 83 61 142.5t114.5 88.5t144 46t152.5 22t136.5 9t100 14.5t39.5 32.5q1 30 8 76t9.5 76t-0.5 65t-21 62.5t-52 49.5t-104 35t-145 16t-146 2.5t-116.5 -2.5t-45.5 -1q-2 1 0.5 12t6 27.5t4.5 25.5q-1 4 50.5 7.5t131.5 3.5t165.5 -5.5t165 -23t117.5 -45.5 q54 -38 74 -120t14.5 -159t-16.5 -187t-10 -161q0 -86 8.5 -250.5t17.5 -286.5l9 -122q-82 2 -82 6l-13 172q-9 -6 -25 -17t-63.5 -37.5t-92 -46.5t-102.5 -35.5t-104 -13.5q-53 0 -109 14.5t-115 53t-101.5 95t-62.5 150t-3 209.5zM128 476.5q-2 -54.5 9 -97t32 -81.5 t44 -66.5t49 -49.5q47 -40 120.5 -49t145 7t137 40.5t107 49.5t45.5 36q6 15 -1 155t-17 273.5t-11 130.5q3 -3 -102 -23q-37 -7 -108 -20q-13 -2 -48.5 -4.5t-65.5 -6t-71 -10.5t-75.5 -20t-68.5 -32.5t-59.5 -51t-39.5 -71.5q-20 -55 -22 -109.5zM297 1624l19 14 q19 13 60 28.5t83 14.5q48 -1 81 -14t59 -29t48 -20q21 -4 62.5 10.5t72.5 31.5l31 17v-84q-12 -7 -31 -17.5t-64 -26t-73 -11.5q-25 3 -78.5 34t-105.5 32q-44 1 -84.5 -15t-58.5 -33l-19 -16z" />
<glyph unicode="&#xe4;" d="M49 573q13 83 61 142.5t114.5 88.5t144 46t152.5 22t136.5 9t100 14.5t39.5 32.5q1 30 8 76t9.5 76t-0.5 65t-21 62.5t-52 49.5t-104 35t-145 16t-146 2.5t-116.5 -2.5t-45.5 -1q-2 1 0.5 12t6 27.5t4.5 25.5q-1 4 50.5 7.5t131.5 3.5t165.5 -5.5t165 -23t117.5 -45.5 q54 -38 74 -120t14.5 -159t-16.5 -187t-10 -161q0 -86 8.5 -250.5t17.5 -286.5l9 -122q-82 2 -82 6l-13 172q-9 -6 -25 -17t-63.5 -37.5t-92 -46.5t-102.5 -35.5t-104 -13.5q-53 0 -109 14.5t-115 53t-101.5 95t-62.5 150t-3 209.5zM128 476.5q-2 -54.5 9 -97t32 -81.5 t44 -66.5t49 -49.5q47 -40 120.5 -49t145 7t137 40.5t107 49.5t45.5 36q6 15 -1 155t-17 273.5t-11 130.5q3 -3 -102 -23q-37 -7 -108 -20q-13 -2 -48.5 -4.5t-65.5 -6t-71 -10.5t-75.5 -20t-68.5 -32.5t-59.5 -51t-39.5 -71.5q-20 -55 -22 -109.5zM338 1522l2 94l94 -4 l4 -90h-100zM645 1522l8 96l92 4v-100h-100z" />
<glyph unicode="&#xe6;" horiz-adv-x="1779" d="M8 573q13 83 61 142.5t114.5 88.5t144 46t152.5 22t136.5 9t100 14.5t39.5 32.5q1 30 8 76t9.5 76t-0.5 65t-21 62.5t-52 49.5t-104 35t-145 16t-146 2.5t-116.5 -2.5t-45.5 -1q-2 1 0.5 12t6 27.5t4.5 25.5q-1 4 50.5 7.5t131.5 3.5t165.5 -5.5t165 -23t117.5 -45.5 q65 -47 82 -160q65 131 175 207t239 76q164 0 288.5 -123.5t186.5 -329.5q6 -18 10 -36.5t6.5 -40t4 -36.5t2 -41.5t0.5 -38.5v-43v-41q-35 -2 -88.5 -3.5t-202 -4.5t-217.5 2q-173 6 -414 -41q8 -147 64.5 -280.5t109.5 -184.5q43 -41 71.5 -65t73.5 -46.5t85 -21.5 q58 2 106.5 23t83 50t68 57.5t77 49.5t93.5 23q-1 -6 -1 -28t1 -46t2 -24q-39 -1 -71.5 -18.5t-61 -42.5t-63.5 -51t-96.5 -47.5t-142.5 -27.5q-60 -4 -111.5 12t-95.5 53t-79.5 81t-75.5 108l-31 52l19 -258q-82 2 -82 6l-13 172q-9 -6 -25 -17t-63.5 -37.5t-92 -46.5 t-102.5 -35.5t-104 -13.5q-53 0 -109 14.5t-115 53t-101.5 95t-62.5 150t-3 209.5zM87 476.5q-2 -54.5 9 -97t32 -81.5t44 -66.5t49 -49.5q47 -40 120.5 -49t145 7t137 40.5t107 49.5t45.5 36q6 15 -0.5 155t-16.5 273.5t-11 130.5q3 -3 -98 -22q-35 -7 -113 -21 q-13 -2 -48.5 -4.5t-65.5 -6t-71 -10.5t-75.5 -20t-68.5 -32.5t-59.5 -51t-39.5 -71.5q-20 -55 -22 -109.5zM854 733l53 17q21 7 149.5 17t180.5 7q31 -2 152.5 -0.5t206 3t104.5 -0.5q-13 136 -64.5 258t-97.5 178q-112 134 -254 134q-190 0 -317 -191q-106 -157 -113 -422 z" />
<glyph unicode="&#xe7;" horiz-adv-x="790" d="M55 702q0 167 64 347q29 84 81 151.5t113.5 110t133.5 71.5t138.5 40.5t131.5 11.5l4 -86q-141 -16 -213 -37q-167 -49 -250 -156q-113 -146 -113 -455q0 -156 71 -324.5t130 -225.5q44 -42 184.5 -68.5t227.5 -26.5v-78q-78 0 -142 5l-18 -129q4 0 11 0.5t27 -1.5t38 -6 t39 -14.5t35 -25.5t21.5 -40.5t2.5 -58.5q-6 -43 -38.5 -70t-66 -36t-83.5 -9.5t-66 1.5t-39 6h-2q-1 0 5 18t12.5 36t7.5 19l19 -4q19 -3 45 -5t53 0t46 15t21 37q3 38 -31 52.5t-69 10.5l-35 -5l-41 49q14 117 22 172q-233 43 -348 235q-129 213 -129 473z" />
<glyph unicode="&#xe8;" horiz-adv-x="1163" d="M92 702q0 141 64 347q53 173 176 278t276 105q164 0 288.5 -123.5t186.5 -329.5q6 -18 10 -36.5t6.5 -40t4 -36.5t2 -41.5t0.5 -38.5v-43v-41q-35 -2 -88.5 -3.5t-202 -4.5t-217.5 2q-157 6 -414 -41q8 -147 64.5 -280.5t109.5 -184.5q43 -41 71.5 -65t73.5 -46.5 t85 -21.5q58 2 106.5 23t83 50t68 57.5t77 49.5t93.5 23q-1 -6 -1 -28t1 -46t2 -24q-39 -1 -71.5 -18.5t-61 -42.5t-63 -51t-96 -47.5t-142.5 -27.5q-60 -4 -111.5 12t-95.5 53t-80 81t-76 108q-129 205 -129 473zM182 733l54 17q21 7 149 17t180 7q31 -2 152.5 -0.5t206 3 t104.5 -0.5q-13 136 -64.5 258t-97.5 178q-112 134 -254 134q-190 0 -317 -191q-106 -157 -113 -422zM385 1731q1 -1 20 13t37 28l19 14q33 -76 84 -111q28 -19 83 -45t97 -42.5t47 -16.5q-5 -4 -14 -36l-8 -32q-1 -1 -58 18.5t-125 47.5t-92 45q-49 34 -87 110z" />
<glyph unicode="&#xe9;" horiz-adv-x="1163" d="M92 702q0 -268 129 -473q40 -64 76 -108t80 -81t95.5 -53t111.5 -12q81 6 142.5 27.5t96 47.5t63 51t61 42.5t71.5 18.5q-1 0 -2 24t-1 46t1 28q-50 -2 -93.5 -23t-77 -49.5t-68 -57.5t-83 -50t-106.5 -23q-40 -1 -85 21.5t-73.5 46.5t-71.5 65q-53 51 -109.5 184.5 t-64.5 280.5q257 47 414 41q105 -3 217.5 -2t201.5 4l89 4v41v43t-0.5 38.5t-2 41.5t-4 36.5t-6.5 40t-10 36.5q-62 206 -186.5 329.5t-288.5 123.5q-153 0 -276 -105t-176 -278q-64 -206 -64 -347zM182 733q7 265 113 422q127 191 317 191q142 0 254 -134q46 -56 97.5 -178 t64.5 -258q-1 2 -104.5 0.5t-206 -3t-152.5 0.5q-52 3 -180 -7t-149 -17zM391 1571q4 0 46 16.5t97.5 42.5t83.5 45q23 16 44 43.5t30 47.5l10 20l76 -55l-22 -39q-34 -54 -68 -78q-24 -17 -92 -45t-124.5 -47.5t-57.5 -18.5q0 1 -9.5 33t-13.5 35z" />
<glyph unicode="&#xea;" horiz-adv-x="1163" d="M92 702q0 -268 129 -473q40 -64 76 -108t80 -81t95.5 -53t111.5 -12q81 6 142.5 27.5t96 47.5t63 51t61 42.5t71.5 18.5q-1 0 -2 24t-1 46t1 28q-50 -2 -93.5 -23t-77 -49.5t-68 -57.5t-83 -50t-106.5 -23q-40 -1 -85 21.5t-73.5 46.5t-71.5 65q-53 51 -109.5 184.5 t-64.5 280.5q257 47 414 41q105 -3 217.5 -2t201.5 4l89 4v41v43t-0.5 38.5t-2 41.5t-4 36.5t-6.5 40t-10 36.5q-62 206 -186.5 329.5t-288.5 123.5q-153 0 -276 -105t-176 -278q-64 -206 -64 -347zM182 733q7 265 113 422q127 191 317 191q142 0 254 -134q46 -56 97.5 -178 t64.5 -258q-1 2 -104.5 0.5t-206 -3t-152.5 0.5q-52 3 -180 -7t-149 -17zM317 1587q12 5 76.5 45.5t123 79.5t58.5 41t68.5 -39.5t137.5 -83.5l69 -43l-62 -59l-217 139l-184 -127q-58 41 -70 47z" />
<glyph unicode="&#xeb;" horiz-adv-x="1163" d="M92 702q0 -268 129 -473q40 -64 76 -108t80 -81t95.5 -53t111.5 -12q81 6 142.5 27.5t96 47.5t63 51t61 42.5t71.5 18.5q-1 0 -2 24t-1 46t1 28q-50 -2 -93.5 -23t-77 -49.5t-68 -57.5t-83 -50t-106.5 -23q-40 -1 -85 21.5t-73.5 46.5t-71.5 65q-53 51 -109.5 184.5 t-64.5 280.5q257 47 414 41q105 -3 217.5 -2t201.5 4l89 4v41v43t-0.5 38.5t-2 41.5t-4 36.5t-6.5 40t-10 36.5q-62 206 -186.5 329.5t-288.5 123.5q-153 0 -276 -105t-176 -278q-64 -206 -64 -347zM182 733q7 265 113 422q127 191 317 191q142 0 254 -134q46 -56 97.5 -178 t64.5 -258q-1 2 -104.5 0.5t-206 -3t-152.5 0.5q-52 3 -180 -7t-149 -17zM377 1522l2 94l94 -4l4 -90h-100zM684 1522l8 96l92 4v-100h-100z" />
<glyph unicode="&#xec;" horiz-adv-x="309" d="M-41 1731q1 -1 20 13t37 28l19 14q33 -76 84 -111q28 -19 83 -45t97 -42.5t47 -16.5q-5 -4 -14 -36l-8 -32q-1 -1 -58 18.5t-125 47.5t-92 45q-49 34 -87 110zM115 281q0 42 3.5 361.5t4.5 346.5q2 34 5.5 242.5t2.5 208.5t18 -1t39 -2l19 -1l-4 -430q1 -19 -3 -187 t-8 -334.5t-4 -171.5v-313h-2h-5.5h-8.5t-9.5 -0.5t-10.5 -0.5h-10.5h-10h-8t-5.5 1h-1q1 16 0.5 65.5t-1.5 126.5t-1 89z" />
<glyph unicode="&#xed;" horiz-adv-x="309" d="M-35 1571q5 0 47 16.5t97.5 42.5t83.5 45q23 16 43.5 43.5t29.5 47.5l10 20l76 -55l-22 -39q-34 -54 -68 -78q-24 -17 -92 -45t-124.5 -47.5t-57.5 -18.5l-9 32q-9 32 -14 36zM115 281q0 42 3.5 361.5t4.5 346.5q2 34 5.5 242.5t2.5 208.5t18 -1t39 -2l19 -1l-4 -430 q1 -19 -3 -187t-8 -334.5t-4 -171.5v-313h-2h-5.5h-8.5t-9.5 -0.5t-10.5 -0.5h-10.5h-10h-8t-5.5 1h-1q1 16 0.5 65.5t-1.5 126.5t-1 89z" />
<glyph unicode="&#xee;" horiz-adv-x="309" d="M-104 1593q18 7 136 85t118 81q0 2 68.5 -39.5t137.5 -83.5l68 -43l-62 -59l-217 139l-184 -127q-51 41 -65 47zM115 281q0 42 3.5 361.5t4.5 346.5q2 34 5.5 242.5t2.5 208.5t18 -1t39 -2l19 -1l-4 -430q1 -19 -3 -187t-8 -334.5t-4 -171.5v-313h-2h-5.5h-8.5t-9.5 -0.5 t-10.5 -0.5h-10.5h-10h-8t-5.5 1h-1q1 16 0.5 65.5t-1.5 126.5t-1 89z" />
<glyph unicode="&#xef;" horiz-adv-x="309" d="M-49 1522l2 94l94 -4l4 -90h-100zM115 281q0 42 3.5 361.5t4.5 346.5q2 34 5.5 242.5t2.5 208.5t18 -1t39 -2l19 -1l-4 -430q1 -19 -3 -187t-8 -334.5t-4 -171.5v-313h-2h-5.5h-8.5t-9.5 -0.5t-10.5 -0.5h-10.5h-10h-8t-5.5 1h-1q1 16 0.5 65.5t-1.5 126.5t-1 89z M258 1522l8 96l92 4v-100h-100z" />
<glyph unicode="&#xf1;" d="M106 281q0 39 4 360t5 348q2 34 5.5 242.5t2.5 208.5t18 -1t39 -2l19 -1q-2 -72 -4 -156q104 160 329 158q72 -1 131 -20.5t95.5 -49.5t64.5 -67t41.5 -73t21.5 -66t10 -49l1 -19h-2v-88q1 -19 -3 -187t-8 -334.5t-4 -171.5v-313h-2h-5.5h-8.5t-9.5 -0.5t-10.5 -0.5 h-10.5h-10h-8t-5.5 1h-1q1 16 0.5 65.5t-1.5 126.5t-1 89q0 42 3.5 361.5t4.5 346.5q4 67 0 86q0 5 -1 14.5t-6.5 36.5t-15.5 51.5t-30.5 54.5t-47.5 52t-71 37t-98 16q-64 1 -119 -14t-91 -36.5t-65 -50t-43 -51t-24 -44.5q-4 -110 0 -135q1 -19 -3 -187t-8 -334.5 t-4 -171.5v-313h-2h-5.5h-8.5t-9.5 -0.5t-10.5 -0.5h-10.5h-10h-8t-5.5 1h-1q1 15 0 65.5t-2 126.5t-1 89zM254 1624l19 14q19 13 60 28.5t83 14.5q48 -1 81 -14t59 -29t48 -20q21 -4 62.5 10.5t72.5 31.5l31 17v-84q-12 -7 -31 -17.5t-64 -26t-73 -11.5q-25 3 -78.5 34 t-105.5 32q-44 1 -84.5 -15t-59.5 -33l-18 -16z" />
<glyph unicode="&#xf2;" horiz-adv-x="1159" d="M55 702q0 141 64 347q52 170 185 276.5t288 106.5q166 0 300 -125t195 -328q41 -131 41 -277q0 -117 -34 -249t-72 -185q-99 -139 -203 -216t-227 -77q-121 0 -227 67.5t-181 186.5q-129 205 -129 473zM145 700q0 -156 71 -324.5t130 -225.5q48 -45 115 -69t135 -24 q122 0 226 86t164.5 234t60.5 323q0 141 -59 291t-118 221q-54 64 -125.5 99t-148.5 35q-97 0 -187 -50t-151 -141q-113 -169 -113 -455zM383 1731q1 -1 20 13t37 28l19 14q33 -76 84 -111q28 -19 83 -45t97 -42.5t47 -16.5q-5 -4 -14 -36l-8 -32q-1 -1 -58 18.5t-125 47.5 t-92 45q-49 34 -87 110z" />
<glyph unicode="&#xf3;" horiz-adv-x="1159" d="M55 702q0 141 64 347q52 170 185 276.5t288 106.5q166 0 300 -125t195 -328q41 -131 41 -277q0 -117 -34 -249t-72 -185q-99 -139 -203 -216t-227 -77q-121 0 -227 67.5t-181 186.5q-129 205 -129 473zM145 700q0 -156 71 -324.5t130 -225.5q48 -45 115 -69t135 -24 q122 0 226 86t164.5 234t60.5 323q0 141 -59 291t-118 221q-54 64 -125.5 99t-148.5 35q-97 0 -187 -50t-151 -141q-113 -169 -113 -455zM389 1571q4 0 46 16.5t97.5 42.5t83.5 45q23 16 44 43.5t30 47.5l10 20l76 -55l-22 -39q-34 -54 -68 -78q-24 -17 -92 -45 t-124.5 -47.5t-57.5 -18.5t-10.5 33t-12.5 35z" />
<glyph unicode="&#xf4;" horiz-adv-x="1159" d="M55 702q0 141 64 347q52 170 185 276.5t288 106.5q166 0 300 -125t195 -328q41 -131 41 -277q0 -117 -34 -249t-72 -185q-99 -139 -203 -216t-227 -77q-121 0 -227 67.5t-181 186.5q-129 205 -129 473zM145 700q0 -156 71 -324.5t130 -225.5q48 -45 115 -69t135 -24 q122 0 226 86t164.5 234t60.5 323q0 141 -59 291t-118 221q-54 64 -125.5 99t-148.5 35q-97 0 -187 -50t-151 -141q-113 -169 -113 -455zM315 1573q12 5 76.5 45.5t123 79.5t58.5 41t68.5 -39.5t137.5 -83.5l69 -43l-62 -60l-217 140l-184 -127q-58 41 -70 47z" />
<glyph unicode="&#xf5;" horiz-adv-x="1159" d="M55 702q0 141 64 347q52 170 185 276.5t288 106.5q166 0 300 -125t195 -328q41 -131 41 -277q0 -117 -34 -249t-72 -185q-99 -139 -203 -216t-227 -77q-121 0 -227 67.5t-181 186.5q-129 205 -129 473zM145 700q0 -156 71 -324.5t130 -225.5q48 -45 115 -69t135 -24 q122 0 226 86t164.5 234t60.5 323q0 141 -59 291t-118 221q-54 64 -125.5 99t-148.5 35q-97 0 -187 -50t-151 -141q-113 -169 -113 -455zM322 1616l19 14q19 13 59.5 28.5t82.5 14.5q48 -1 81.5 -14t59.5 -29t48 -20q21 -4 62.5 10.5t72.5 31.5l31 17v-84q-12 -7 -31 -17.5 t-64 -26t-73 -11.5q-25 3 -79 33.5t-106 31.5q-44 1 -84 -15t-59 -32l-18 -16z" />
<glyph unicode="&#xf6;" horiz-adv-x="1159" d="M55 702q0 141 64 347q52 170 185 276.5t288 106.5q166 0 300 -125t195 -328q41 -131 41 -277q0 -117 -34 -249t-72 -185q-99 -139 -203 -216t-227 -77q-121 0 -227 67.5t-181 186.5q-129 205 -129 473zM145 700q0 -156 71 -324.5t130 -225.5q48 -45 115 -69t135 -24 q122 0 226 86t164.5 234t60.5 323q0 141 -59 291t-118 221q-54 64 -125.5 99t-148.5 35q-97 0 -187 -50t-151 -141q-113 -169 -113 -455zM375 1522l2 94l94 -4l4 -90h-100zM682 1522l8 96l92 4v-100h-100z" />
<glyph unicode="&#xf7;" horiz-adv-x="659" d="M31 735q19 1 165.5 -2.5t290.5 -7.5t150 -4l2 -74q-38 0 -307.5 3.5t-296.5 4.5zM260 430l12 145l148 -6v-151zM260 823l12 146l148 -6v-152z" />
<glyph unicode="&#xf8;" horiz-adv-x="1175" d="M51 702q0 141 64 347q52 170 185 276.5t288 106.5q147 0 272 -103l43 107q3 1 23.5 0.5t44.5 -1.5l24 -1q-30 -70 -71 -164q107 -119 159 -291q41 -131 41 -277q0 -117 -34 -249t-72 -185q-99 -139 -203 -216t-227 -77q-145 0 -266 95l-48 -72q-86 0 -96 4l78 127 q-42 45 -76 100q-129 205 -129 473zM141 700q0 -132 49.5 -271t110.5 -230q281 442 291 467q1 4 237 585q-106 95 -237 95q-97 0 -187 -50t-151 -141q-113 -169 -113 -455zM362 131q91 -74 230 -74q122 0 225.5 86t164 234t60.5 323q0 126 -48 261.5t-105 222.5 q-209 -493 -225 -551q-18 -64 -302 -502z" />
<glyph unicode="&#xf9;" horiz-adv-x="1069" d="M143 1006q6 78 25.5 187.5t35.5 180.5l17 70q2 0 6 0.5t14 1t19 0.5t18 0.5t14 1.5h5q-1 0 -16 -79t-33.5 -193t-24.5 -187q-8 -89 -9 -192t1.5 -166.5t8 -147t5.5 -92.5v-2q-1 -4 0.5 -20.5t8.5 -45t19.5 -59.5t37 -64t56.5 -59.5t83 -44.5t113 -20q80 -3 144.5 24.5 t101 65t63 87.5t35 78t12.5 50q-14 589 -12 625l-4 430q2 0 6 0.5t14 1t19 0.5t18 0.5t14 1.5h5q-1 0 2.5 -208.5t5.5 -242.5q2 -32 8 -602v-106q0 -12 -1 -89t-1.5 -126.5t0.5 -65.5q1 -1 -17 -1t-36 1h-19v188q-119 -192 -358 -184q-76 3 -138.5 24.5t-102 52t-69.5 70.5 t-45 75.5t-23.5 72.5t-10.5 55t-2 29q-27 328 -13 623zM338 1731q1 -1 20 13l38 28l18 14q33 -76 84 -111q28 -19 83 -45t97 -42.5t47 -16.5q-5 -4 -14 -36l-9 -32q-1 -1 -57.5 18.5t-124.5 47.5t-92 45q-49 34 -87 110z" />
<glyph unicode="&#xfa;" horiz-adv-x="1069" d="M143 1006q-14 -295 13 -623q0 -11 2 -29t10.5 -55t23.5 -72.5t45 -75.5t69.5 -70.5t102 -52t138.5 -24.5q239 -8 358 184v-188h2h5.5h8.5t10 -0.5t11 -0.5h10.5h10h8t5.5 1h1q-1 16 -0.5 65.5t1.5 126.5t1 89q0 42 -3.5 361.5t-4.5 346.5q-2 34 -5.5 242.5t-2.5 208.5 t-18 -1t-39 -2l-19 -1l4 -430q-2 -36 12 -625q-4 -22 -12.5 -50t-35 -78t-63 -87.5t-101 -65t-144.5 -24.5q-62 2 -113 20t-83 44.5t-56.5 59.5t-37 64t-19.5 59.5t-8.5 45t-0.5 20.5v2q0 9 -5.5 92.5t-8 147t-1.5 166.5t9 192q6 73 24.5 187t33.5 193t16 79t-18 -1t-39 -2 l-19 -1q-64 -262 -78 -438zM344 1571q4 0 46 16.5t97.5 42.5t83.5 45q23 16 44 43.5t31 47.5l9 20l76 -55l-22 -39q-34 -54 -68 -78q-24 -17 -92 -45t-124.5 -47.5t-57.5 -18.5t-10.5 33t-12.5 35z" />
<glyph unicode="&#xfb;" horiz-adv-x="1069" d="M143 1006q-14 -295 13 -623q0 -11 2 -29t10.5 -55t23.5 -72.5t45 -75.5t69.5 -70.5t102 -52t138.5 -24.5q239 -8 358 184v-188h2h5.5h8.5t10 -0.5t11 -0.5h10.5h10h8t5.5 1h1q-1 16 -0.5 65.5t1.5 126.5t1 89q0 42 -3.5 361.5t-4.5 346.5q-2 34 -5.5 242.5t-2.5 208.5 t-18 -1t-39 -2l-19 -1l4 -430q-2 -36 12 -625q-4 -22 -12.5 -50t-35 -78t-63 -87.5t-101 -65t-144.5 -24.5q-62 2 -113 20t-83 44.5t-56.5 59.5t-37 64t-19.5 59.5t-8.5 45t-0.5 20.5q0 7 -5.5 91.5t-8 148.5t-1.5 167.5t9 192.5q6 73 24.5 187t33.5 193t16 79t-18 -1 t-39 -2l-19 -1q-64 -262 -78 -438zM324 1581q12 5 76.5 45.5t123 79.5t58.5 41t68.5 -39.5t137.5 -83.5l68 -43l-61 -59l-217 139l-185 -127q-57 41 -69 47z" />
<glyph unicode="&#xfc;" horiz-adv-x="1069" d="M143 1006q-14 -295 13 -623q0 -11 2 -29t10.5 -55t23.5 -72.5t45 -75.5t69.5 -70.5t102 -52t138.5 -24.5q239 -8 358 184v-188h2h5.5h8.5t10 -0.5t11 -0.5h10.5h10h8t5.5 1h1q-1 16 -0.5 65.5t1.5 126.5t1 89v106q-6 570 -8 602q-2 34 -5.5 242.5t-2.5 208.5t-18 -1 t-39 -2l-19 -1l4 -430q-2 -36 12 -625q-4 -22 -12.5 -50t-35 -78t-63 -87.5t-101 -65t-144.5 -24.5q-62 2 -113 20t-83 44.5t-56.5 59.5t-37 64t-19.5 59.5t-8.5 45t-0.5 20.5q0 7 -5.5 91.5t-8 148.5t-1.5 167.5t9 192.5q6 73 24.5 187t33.5 193t16 79t-18 -1t-39 -2 l-19 -1q-64 -262 -78 -438zM330 1522l2 94l94 -4l4 -90h-100zM637 1522l8 96l92 4v-100h-100z" />
<glyph unicode="&#xfd;" horiz-adv-x="843" d="M41 1169q0 13 1.5 78t3.5 126.5t3 60.5q4 -1 21.5 -0.5t38 0t20.5 -3.5v-4q-25 -246 23 -408q57 -196 213 -184q232 16 313 149q-2 76 -5 196.5t-4.5 186.5t-0.5 66q92 0 92 4q0 5 1 -98.5t2 -247.5t2 -294.5t1 -263.5t-2 -131q0 -2 -2 -26.5t-3.5 -41t-7 -49t-13 -56.5 t-21 -56.5t-30.5 -56.5t-43 -49.5t-57 -42t-73.5 -27.5t-91.5 -12q-96 -2 -169 25t-111.5 66t-62.5 89t-30.5 86.5t-5.5 66.5h86q0 -20 2.5 -38.5t10.5 -50t28 -57t51 -50.5t84 -40.5t121 -17.5q61 -2 108.5 24.5t75.5 70.5t47 105.5t26 121.5t9 127t-0.5 114.5t-5 90.5 t-2.5 49q0 45 -2 90q-76 -53 -176 -88t-209 -20q-65 9 -115.5 54t-76 99.5t-41 118t-19.5 98.5t-4 51zM231 1571q4 0 46 16.5t98 42.5t84 45q23 16 44 43.5t31 47.5l9 20l75 -55l-22 -39q-34 -54 -68 -78q-24 -17 -92 -45t-124.5 -47.5t-57.5 -18.5q0 1 -10 33t-13 35z" />
<glyph unicode="&#xff;" horiz-adv-x="868" d="M41 1169q0 13 1.5 78t3.5 126.5t3 60.5q4 -1 21.5 -0.5t38 0t20.5 -3.5v-4q-25 -246 23 -408q57 -196 213 -184q232 16 313 149q-2 76 -5 196.5t-4.5 186.5t-0.5 66q92 0 92 4q0 5 1 -98.5t2 -247.5t2 -294.5t1 -263.5t-2 -131q0 -2 -2 -26.5t-3.5 -41t-7 -49t-13 -56.5 t-21 -56.5t-30.5 -56.5t-43 -49.5t-57 -42t-73.5 -27.5t-91.5 -12q-96 -2 -169 25t-111.5 66t-62.5 89t-30.5 86.5t-5.5 66.5h86q0 -20 2.5 -38.5t10.5 -50t28 -57t51 -50.5t84 -40.5t121 -17.5q61 -2 108.5 24.5t75.5 70.5t47 105.5t26 121.5t9 127t-0.5 114.5t-5 90.5 t-2.5 49q0 45 -2 90q-76 -53 -176 -88t-209 -20q-65 9 -115.5 54t-76 99.5t-41 118t-19.5 98.5t-4 51zM229 1522l2 94l95 -4l4 -90h-101zM537 1522l8 96l92 4v-100h-100z" />
<glyph unicode="&#x152;" horiz-adv-x="2078" d="M51 702q0 141 64 347q38 124 118 213q71 80 164 125t191 45q187 0 334 -160q38 43 60 66.5t50.5 46t50.5 28.5q56 16 105.5 22.5t71.5 5.5l22 -1l74 -4h98q29 -2 222 -1.5t229 -0.5q26 -1 63.5 1t60.5 4t23 1l6 -80l-704 4q-5 -305 -2 -358q0 -76 -6 -287q77 4 108 2 q29 -2 165.5 -2.5t158.5 -1.5q24 -1 64.5 -1.5t64.5 -1t24 -1.5l2 -68l-587 4q-2 -70 -4 -153.5t-3.5 -131t-1.5 -51.5v-247q12 0 55.5 1.5t61.5 0.5q29 -2 222 -1.5t229 -0.5q26 -1 63.5 1t60.5 4t23 1l6 -80l-774 6v2h-18q1 16 0.5 65.5t-1.5 126.5t-1 89q0 42 3.5 361.5 t4.5 346.5q0 13 1.5 79.5t3.5 155t3 138.5q-134 0 -205 -49q-10 -6 -24.5 -19.5t-40 -40.5t-39.5 -41q73 -105 112 -233q41 -131 41 -277q0 -117 -34 -249t-72 -185q-99 -139 -203 -216t-227 -77q-121 0 -227 67.5t-181 186.5q-129 205 -129 473zM141 700q0 -156 71 -324.5 t130 -225.5q48 -45 115 -69t135 -24q122 0 225.5 86t164 234t60.5 323q0 115 -40.5 237t-94.5 214q-279 -262 -516 -231q-163 18 -186 141q-64 -155 -64 -361zM233 1262l11 -11q0 4 -3 7t-5 4h-3zM273.5 1120.5q-0.5 -20.5 9 -45.5t30.5 -42.5t64.5 -28.5t105.5 -9 q108 3 198.5 61t184.5 156q-54 64 -125.5 99t-148.5 35q-82 0 -159.5 -36t-137.5 -102q-2 -5 -5.5 -13t-9.5 -31t-6.5 -43.5z" />
<glyph unicode="&#x153;" horiz-adv-x="2080" d="M51 702q0 141 64 347q52 170 185 276.5t288 106.5q166 0 300 -125t195 -328q0 -4 2 -6q4 17 23 76q53 173 176.5 278t276.5 105q164 0 288.5 -123.5t186.5 -329.5q7 -21 11 -45t6.5 -42t3.5 -48t1 -44.5v-50v-47.5q-35 -2 -88.5 -3.5t-202 -4.5t-217.5 2q-172 6 -413 -41 q8 -147 64.5 -280.5t109.5 -184.5q44 -42 71.5 -65t72.5 -46t85 -22q58 2 106.5 23t83 50t68 57.5t77 49.5t93.5 23q-1 -6 -1 -28t1 -46t2 -24q-39 -1 -71.5 -18.5t-61 -42.5t-63 -51t-96 -47.5t-142.5 -27.5q-60 -4 -111.5 12t-95.5 53t-79.5 81t-75.5 108q-58 92 -91 199 q-31 -110 -65 -160q-99 -139 -203 -216t-227 -77q-121 0 -227 67.5t-181 186.5q-129 205 -129 473zM141 700q0 -156 71 -324.5t130 -225.5q48 -45 115 -69t135 -24q122 0 225.5 86t164 234t60.5 323q0 141 -58.5 291t-117.5 221q-54 64 -125.5 99t-148.5 35q-97 0 -187 -50 t-151 -141q-113 -169 -113 -455zM1135 733l53 17q21 7 149.5 17t180.5 7q31 -2 152 -0.5t205.5 3t104.5 -0.5q-13 136 -64 258.5t-97 177.5q-112 134 -254 134q-191 0 -318 -191q-105 -155 -112 -422z" />
<glyph unicode="&#x178;" horiz-adv-x="946" d="M49 1430q0 -1 42 -80.5t86.5 -166t49.5 -100.5q11 -34 244 -436q-6 -119 -6 -360q0 -12 1 -89t1.5 -126.5t-0.5 -65.5q-1 -1 17 -1t36 1h19v313q0 23 2.5 87.5t6.5 150t5 127.5l61 141q8 20 141 313.5t134 293.5h-9q-9 1 -23 1.5t-28 1.5t-24 1.5t-10 1.5t-18.5 -44 t-38.5 -95.5t-25 -63.5l-209 -463l-211 379l-152 281q-1 1 -46.5 0.5t-45.5 -2.5zM268 1585l2 94l95 -4l4 -90h-101zM575 1585l9 96l92 5v-101h-101z" />
<glyph unicode="&#x2c6;" horiz-adv-x="1705" d="M340 1186q12 5 76.5 45.5t123 79.5t58.5 41t68.5 -39.5t137.5 -84.5l68 -42l-61 -60l-217 140l-184 -127q-58 41 -70 47z" />
<glyph unicode="&#x2dc;" horiz-adv-x="610" d="M43 1212l19 14q19 13 60 29t83 15q48 -1 81 -14t59 -29.5t48 -20.5q21 -4 62.5 11t72.5 32l31 17v-84q-12 -7 -31 -17.5t-64 -26.5t-73 -12q-25 3 -78.5 34t-105.5 32q-44 1 -84.5 -15t-58.5 -33l-19 -16z" />
<glyph unicode="&#x2000;" horiz-adv-x="923" />
<glyph unicode="&#x2001;" horiz-adv-x="1847" />
<glyph unicode="&#x2002;" horiz-adv-x="923" />
<glyph unicode="&#x2003;" horiz-adv-x="1847" />
<glyph unicode="&#x2004;" horiz-adv-x="615" />
<glyph unicode="&#x2005;" horiz-adv-x="461" />
<glyph unicode="&#x2006;" horiz-adv-x="307" />
<glyph unicode="&#x2007;" horiz-adv-x="307" />
<glyph unicode="&#x2008;" horiz-adv-x="230" />
<glyph unicode="&#x2009;" horiz-adv-x="369" />
<glyph unicode="&#x200a;" horiz-adv-x="102" />
<glyph unicode="&#x2010;" horiz-adv-x="677" d="M31 735q19 1 165.5 -2.5t290.5 -7.5t150 -4l2 -74q-38 0 -307.5 3.5t-296.5 4.5z" />
<glyph unicode="&#x2011;" horiz-adv-x="677" d="M31 735q19 1 165.5 -2.5t290.5 -7.5t150 -4l2 -74q-38 0 -307.5 3.5t-296.5 4.5z" />
<glyph unicode="&#x2012;" horiz-adv-x="677" d="M31 735q19 1 165.5 -2.5t290.5 -7.5t150 -4l2 -74q-38 0 -307.5 3.5t-296.5 4.5z" />
<glyph unicode="&#x2013;" horiz-adv-x="1093" d="M31 735q32 1 278.5 -2.5t489.5 -7.5t253 -4l3 -74q-64 0 -518 3.5t-499 4.5z" />
<glyph unicode="&#x2014;" horiz-adv-x="2117" d="M31 735q64 1 557.5 -2.5t978.5 -7.5t505 -4l7 -74q-128 0 -1036 3.5t-999 4.5z" />
<glyph unicode="&#x2018;" horiz-adv-x="264" d="M23 1067q-11 203 22 285q15 37 61.5 71t85.5 49l39 15l13 -80q-16 16 -86 -33q-34 -24 -51 -61.5t-17 -63.5v-26h78q1 -9 3 -24t6.5 -47t8 -53t4.5 -20q2 1 -40 -2t-84 -7z" />
<glyph unicode="&#x2019;" horiz-adv-x="303" d="M20 1149q1 -2 5 -4t27 4t59 25t57.5 54.5t25.5 61.5l3 25l-78 10v24.5t-0.5 47.5t-1.5 53t-2 20q-2 -1 40 -3t85 -3l43 -2q-2 -23 -5.5 -58.5t-18.5 -111t-34 -110.5t-69 -62.5t-90 -37.5l-41 -11z" />
<glyph unicode="&#x201a;" horiz-adv-x="458" d="M109 -162q6 -18 90 23q36 19 57.5 54.5t25.5 60.5l3 26l-78 10v24.5t-0.5 47.5t-1.5 53.5t-2 20.5q-2 -1 40 -3t85 -3l43 -2q-2 -23 -5.5 -58.5t-18.5 -111.5t-34 -111t-69 -62.5t-90 -38.5l-41 -10z" />
<glyph unicode="&#x201c;" horiz-adv-x="493" d="M23 1067q-11 203 22 285q15 37 61.5 71t85.5 49l39 15l13 -80q-16 16 -86 -33q-34 -24 -51 -61.5t-17 -63.5v-26h78q1 -9 3 -24t6.5 -47t8 -53t4.5 -20q2 1 -40 -2t-84 -7zM252 1067q-11 203 22 285q15 37 61.5 71t86.5 49l39 15l12 -80q-16 16 -86 -33 q-34 -24 -51 -61.5t-17 -63.5v-26h78q1 -9 3 -24t6.5 -47t8.5 -53t5 -20q2 1 -40 -2t-85 -7z" />
<glyph unicode="&#x201d;" horiz-adv-x="526" d="M20 1149q1 -2 5 -4t27 4t59 25t57.5 54.5t25.5 61.5l3 25l-78 10v24.5t-0.5 47.5t-1.5 53t-2 20q-2 -1 40 -3t85 -3l43 -2q-2 -23 -5.5 -58.5t-18.5 -111t-34 -110.5t-69 -62.5t-90 -37.5l-41 -11zM244 1149q1 -2 5 -4t26.5 4t58.5 25t57.5 54.5t24.5 61.5l4 25l-78 10 v24.5t-0.5 47.5t-1.5 53t-2 20q-2 -1 40 -3t85 -3l43 -2q-2 -23 -5.5 -58.5t-18 -111t-33.5 -110.5t-69.5 -62.5t-91.5 -37.5l-40 -11z" />
<glyph unicode="&#x201e;" horiz-adv-x="552" d="M27 -172q1 -4 8.5 -5t29 5.5t52.5 21.5q36 19 57.5 54.5t25.5 61.5l3 26l-78 10v24.5t-0.5 47.5t-1.5 53t-2 20q-2 -1 40 -3t85 -4l43 -1q-2 -23 -5.5 -58.5t-18.5 -111t-34 -110.5t-69 -62.5t-90 -38.5l-41 -10zM250 -172q1 -4 8.5 -5t29 5.5t52.5 21.5q36 19 57.5 54.5 t24.5 61.5l4 26l-78 10v24.5t-0.5 47.5t-1.5 53t-2 20q-2 -1 40 -3t85 -4l43 -1q-2 -23 -5.5 -58.5t-18 -111t-33.5 -110.5t-69.5 -62.5t-91.5 -38.5l-40 -10z" />
<glyph unicode="&#x2022;" horiz-adv-x="235" d="M23 649q0 42 27 72.5t65 30.5t66 -31t28 -72t-28 -71.5t-66 -30.5t-65 30t-27 72z" />
<glyph unicode="&#x2026;" horiz-adv-x="1124" d="M94 14l12 146l148 -6v-152zM469 14l12 146l148 -6v-152zM844 14l12 146l148 -6v-152z" />
<glyph unicode="&#x202f;" horiz-adv-x="369" />
<glyph unicode="&#x205f;" horiz-adv-x="461" />
<glyph unicode="&#x20ac;" horiz-adv-x="927" d="M0 557q79 33 147 53q-4 29 -4 92v52q-27 -8 -52.5 -17.5t-40 -16t-13.5 -7.5l-37 67q86 36 154 56q14 107 53 213q29 84 81 151.5t113.5 110t133.5 71.5t138.5 40.5t131.5 11.5l4 -86q-141 -16 -213 -37q-167 -49 -250 -156q-84 -108 -104 -305q47 3 86.5 -2t102.5 -19.5 t87 -19.5q57 -10 93 -6.5t53 11.5l16 9q6 -86 6 -88t-5 -6t-30 -7.5t-65 -0.5q-46 3 -162 28t-152 27q-25 0 -39 -2v-74q0 -42 5 -73q48 4 89 -1t102.5 -20t88.5 -20q57 -10 93 -6.5t53 12.5l16 8q6 -86 6 -88t-5 -6t-30 -7.5t-65 -0.5q-46 3 -162 28t-152 27h-22 q27 -128 84 -245t100 -158q44 -42 184.5 -68.5t227.5 -26.5v-78q-38 0 -58.5 0.5t-62 2.5t-68 6t-67.5 13t-70.5 21t-67 31.5t-66.5 44t-59 58.5t-55 75q-85 142 -114 306q-30 -9 -59 -19t-46 -17.5t-16 -9.5z" />
<glyph unicode="&#x25fc;" horiz-adv-x="1382" d="M0 0v1382h1382v-1382h-1382z" />
<glyph unicode="&#xfb01;" horiz-adv-x="1050" d="M86 965q49 32 117 36v136l2 98q2 6 5 16t15.5 38.5t28.5 55t44 58t60.5 54.5t80 38t100.5 14q69 -1 123 -17.5t85.5 -41.5t53.5 -55t30.5 -60t12.5 -54.5t3 -40.5l-1 -15q-2 -176 0 -219q1 -19 -3 -187t-8 -334.5t-4 -171.5v-313h-2h-5.5h-8.5t-9.5 -0.5t-10.5 -0.5 h-10.5h-10h-8t-4.5 1h-2q1 16 0.5 65.5t-1.5 126.5t-1 89q0 42 3.5 361.5t4.5 346.5q2 32 2.5 133.5t-0.5 102.5q-2 1 0.5 10.5t-2.5 27t-10 38t-22.5 41.5t-40 39t-62.5 30t-90 14t-96 -19.5t-76.5 -54t-52.5 -65.5t-32 -56t-8 -24v-37q0 -37 3 -178q6 0 14 -4 q47 -16 99.5 -15t88.5 15q20 8 35.5 19t21.5 18l5 6l51 -59q-2 -2 -6 -5t-17 -12.5t-26.5 -17t-35.5 -17.5t-43 -14.5t-49 -8t-55 2.5q-49 6 -81 12q8 -386 8 -450q-2 -33 -5.5 -272.5t-2.5 -239.5t-18 1t-39 2l-19 1l4 491q-1 16 -6 486h-17q-29 -2 -86 -47z" />
<glyph unicode="&#xfb02;" horiz-adv-x="1144" d="M86 965q49 32 117 36v136l2 98q2 6 5 16t15.5 38.5t28.5 55t44 58t60.5 54.5t80 38t100.5 14q69 -1 123 -17.5t85.5 -41.5t53.5 -55t30.5 -60t12.5 -54.5t3 -40.5l-1 -15q-2 -176 0 -219q1 -19 -3 -187t-8 -334.5t-4 -171.5v-344q22 -4 104.5 -41.5t127.5 -38.5 q53 -1 102.5 16.5t72.5 35.5l24 18q3 -4 7 -10t12.5 -19t14 -21.5t4.5 -8.5l-4 -4q-4 -4 -11.5 -11t-19 -15t-30 -16.5t-40 -15.5t-52.5 -12t-66 -6q-53 -1 -94.5 12t-65.5 30t-65 32t-92 16v194q-2 72 -2 177q0 42 3.5 361.5t4.5 346.5q2 32 2.5 133.5t-0.5 102.5 q-2 1 0.5 10.5t-2.5 27t-10 38t-22.5 41.5t-40 39t-62.5 30t-90 14t-96 -19.5t-76.5 -54t-52.5 -65.5t-32 -56t-8 -24v-37q0 -37 3 -178q6 0 14 -4q47 -16 99.5 -15t88.5 15q20 8 35.5 19t21.5 18l5 6l51 -59q-2 -2 -6 -5t-17 -12.5t-26.5 -17t-35.5 -17.5t-43 -14.5t-49 -8 t-55 2.5q-49 6 -81 12q8 -386 8 -450q-2 -33 -5.5 -272.5t-2.5 -239.5t-18 1t-39 2l-19 1l4 491q-1 16 -6 486h-17q-29 -2 -86 -47z" />
</font>
</defs>
</svg>
